<?xml version="1.0" encoding="UTF-8"?>
<svg xmlns="http://www.w3.org/2000/svg" version="1.1" viewBox="0 0 300 300"><title>Thermaco HVAC</title><g><g fill="#fefefe" transform="matrix(.1 0 0 -.1 0 300)"><path d="M785 2750c-35-14-59-50-184-266l-121-211v-77l40-66c44-72 74-150 85-217l7-43H395l-12-20-13-19-97-3-97-3-89-152-89-152 92-155 92-156h187l24-24 23-23-4-92-4-92 12-62 12-62 32-70c64-136 165-245 336-360l85-57 140-68c158-77 400-170 460-177l41-5 86 30c241 85 451 185 598 283l95 63 76 76 76 75 37 58c21 32 49 88 64 125l26 67 1 135v134l23 23 23 23h187l92 156 91 155-88 152-88 152-98 3-97 3-13 19-12 20h-215l6 43c11 69 42 147 85 217l42 65 1 36 1 35-114 200c-63 109-124 215-137 236l-24 37-39 12-39 11-98-25c-55-14-139-33-189-42l-90-17-230-5-231-5-134 17-135 17-113 29c-120 31-135 33-167 19z"/></g><g fill="#dadcd3" transform="matrix(.1 0 0 -.1 0 300)"><path d="M785 2750c-35-14-59-50-184-266l-121-211v-79l32-50c45-71 75-142 88-212l13-62h57v75l-28 80-28 80-37 58c-20 31-37 63-37 71 0 14 224 411 248 439l15 17h21c12 0 66-11 121-25 55-13 152-32 215-42l115-17h450l120 18c66 10 163 29 215 42s104 24 116 24h21l15-17c9-10 68-109 132-220l116-202v-18c0-10-9-31-21-48-57-85-109-221-109-289v-26h59l6 38c4 20 15 64 26 97l19 60 41 65 42 65 1 36 1 35-114 200c-63 109-124 215-137 236l-24 37-39 12-39 11-98-25c-55-14-139-33-189-42l-90-17-230-5-231-5-134 17-135 17-113 29c-120 31-135 33-167 19zm-72-309c-62-108-113-201-113-206 0-4 14-31 31-59 41-66 75-158 90-240l11-66 362 2 361 3v670l-110 7c-151 11-308 34-421 63-52 14-95 25-97 25-1-1-53-90-114-199zm321-175-17-67 13-25c8-13 17-24 22-24h9l-11 19c-5 11-10 31-10 45v26h10c6 0 10-4 10-9s11-22 24-38c13-15 26-38 30-51l8-23-38-34c-45-41-52-43-56-12l-3 22-25 1c-14 1-29 2-34 3l-8 1 12 15 13 15 15-12 15-13-11 22c-7 12-12 37-12 55v33l27 61c16 34 29 61 31 59 2-1-5-33-14-69zm-29 45 5-10-21-41-22-41 6-42c2-23 3-36 0-29l-5 12h-38v10c0 5 8 13 18 19l17 10-12 20c-7 12-13 25-13 31v10h38l5 15 6 14-10 6-9 6 5 10c8 12 22 12 30 0zm1061 303c-114-30-261-52-409-60l-117-7v-677h730l4 23c22 113 32 150 55 202 15 33 39 78 53 100l25 41-116 202-116 202-10-2c-5 0-50-11-99-24zm-111-274c3-5 15-10 26-10h21l29-29 29-29v-24l-1-23-13 31c-8 17-24 39-37 48l-23 16h-88l-34-34c-18-18-36-31-39-28-10 10-5 21 14 27l20 6 6 20 6 19h59v10c0 6 4 10 9 10 6 0 13-4 16-10zm46-69c16-16 29-37 29-45v-16h-180l13 33 13 32 25 12c13 7 34 13 47 13h24l29-29zM392 1833c-10-16-55-92-101-169l-82-142 98-166 97-166h2192l97 166 98 166-82 142c-46 77-91 153-101 169l-19 27H411l-19-27zm406-125 3-28h-81v-210h-60v210h-71l-5 15c-4 8-3 22 0 30l6 16 102-3 103-3 3-27zm74-20 3-53h100l3 53 3 53 27-3 27-3 3-132 3-133h-60l-3 53-3 52H875l-3-53-3-53-27 3-27 3-3 119c-1 66 0 126 2 133l5 13h50l3-52zm368 27v-24l-62-3-63-3-3-27-3-28h121v-50h-120v-60h130v-50h-190v128c0 71 3 132 7 135 3 4 46 7 95 7h88v-25zm162 15 37-11 16-22 15-21v-57l-23-23-24-24 23-43c30-57 30-59-6-59h-30l-25 50-25 50h-40v-100h-60v270h53c28 0 69-5 89-10zm174-57 37-66 14 19c8 10 26 40 39 67l24 47h50v-271l-27 3-28 3-5 75-5 75-19-42c-29-66-49-65-84 2l-21 40-1-77v-78h-60v270h48l38-67zm344 52 13-15 1-89 1-89 23-31 23-31h-28l-11 25-12 25h-97l-11-25-12-25h-25c-14 0-25 4-25 8 0 8 60 187 79 235l11 27h58l12-15zm-880-356v-39h-20v40h-40v-40h-20v80h10c6 0 10-7 10-15v-15h40v41l10-6 10-6v-40zm35 11c4-17 10-30 15-30s11 13 15 30c4 16 10 32 15 35l9 6-15-46c-22-64-33-60-59 24l-7 24 10-7c6-3 13-20 17-36zm130-12 15-38h-20l-7 30c-3 17-10 33-14 36l-9 5-1-18c-1-10-1-21-1-25 1-3-6-12-15-19l-16-14 8 25c4 14 12 36 17 49l9 24 9-9c5-5 16-26 25-46zm79 46c9-3 16-11 16-16v-10l-15 12-15 12-15-12-16-13 3-21 3-21 29 2 29 2-10-10-11-11-23 4-24 3-3 28-3 28 12 15c13 16 20 17 43 8zm111-5 7-10-17 3-18 3-4-12-4-12 26-7 26-6-3-17-3-16-24-3-23-4-12 12-11 11 26-6 27-7 6 10 6 10-30 11c-32 11-37 20-18 39 15 15 35 15 43 1zm86 1 19-11v-19c0-10-3-25-6-34l-6-16h-47l-11 19c-14 27-13 37 6 55 18 19 20 19 45 6zm77-73 27-4-32-2-33-1 2 48 1 47 4-42 4-42 27-4zm67 8h20l6 40 7 40-2-45-1-45h-60l-1 45-2 45 7-40 6-40h20zm115 65c0-5-4-10-10-10h-10v-70h-20v70h-10c-5 0-10 5-10 10v10h60v-10zm27-57-4-28v100l4-22c2-13 2-35 0-50zm88 51 16-16-3-21c-2-11-11-25-20-31l-18-11-17 11c-10 6-19 20-21 31l-3 21 16 16c9 9 20 16 25 16s16-7 25-16zm95-31-1-48-24 29-23 29-5-29-4-29-1 45-1 45 24-30 25-30v33c0 17 2 32 5 32s5-21 5-47zm75 36 7-10-17 3-18 3-4-12-4-12 26-7 26-6-3-17-3-16-24-3-23-4-11 11-11 11 32-6 32-6v10c0 5-13 15-30 21-32 11-37 20-18 39 15 15 35 15 43 1zm-705 241v-40h59l15 16c19 18 19 20 6 45l-11 19h-69v-40zm551-3c-6-15-14-39-17-52l-6-25h73l-7 23c-3 12-12 36-19 52l-13 30-11-28zm-424-243c-4-4-7-20-7-36v-28h41l-3 32-3 31-11 4c-5 2-13 0-17-3zm370 0c-4-4-7-20-7-36v-28h41l-3 32-3 31-11 4c-5 2-13 0-17-3zM112 1683c-45-76-83-145-86-153l-5-15 82-140 83-140 87-3c48-1 87 0 87 3 0 4-31 59-70 124-38 65-74 130-81 144l-11 25 81 137c45 75 81 141 81 146v9H192l-80-137zm2532 120c4-10 41-76 83-147l75-129-11-25c-7-13-43-78-81-143-39-65-70-120-70-124 0-3 39-4 87-3l87 3 83 140c45 77 83 143 83 146 0 4-39 72-86 153l-86 146h-170l6-17zM416 1143c-3-21-6-70-6-110 0-235 125-430 390-608l85-57 140-68c158-77 400-170 460-177l41-5 86 30c241 85 451 185 598 283l95 63 76 76 76 75 37 58c21 32 49 88 63 125l26 67 5 96c2 54 1 118-2 143l-7 46h-59l6-97 7-98-17-65c-23-89-54-153-111-228l-48-63-71-60c-145-123-368-240-653-344l-132-48-118 43C954 376 696 539 564 737l-37 56-25 71-26 71v95c0 52 3 107 7 123l7 27h-67l-7-37zm118-19c-3-31-4-91-1-133l5-76 22-55c91-230 374-425 873-601l67-24 68 24c324 112 570 243 714 379l68 64 40 60 40 60 21 67 20 66v76c1 41-3 92-6 112l-7 37H541l-7-56zm324-126c7-7 12-21 12-32v-20l-32-33-32-33h74v-20H760v9c0 5 18 25 40 44l40 34v16c0 9-5 19-11 22l-10 7-19-17c-10-9-24-15-30-13l-10 3 15 23 16 22h55l12-12zm142-3 12-15-5-21-6-21 12-19 12-19-11-18-11-17h-86l-11 17-11 18 12 18 11 19-9 14c-12 19-11 25 7 43l15 16h57l12-15zm142-2c25-23 23-43-13-91l-31-42h-29l15 22 16 22-30 12-30 13v50l16 15 15 16h52l19-17zm218 2 12-15-5-21-6-21 12-19 12-19-11-18-11-17h-86l-11 17-11 18 12 18 11 19-9 14c-12 19-11 25 7 43l15 16h57l12-15zm140-5c26-26 26-27-10-83l-30-47h-32l16 25 16 25h-18c-10 0-23 5-30 12l-12 12v55l18 10c9 6 27 11 40 11h22l20-20zm133 7 17-12 7-37 6-38-17-25-16-25h-66l-12 12-12 12v95l16 15 15 16h23c12 0 30-6 39-13zm225 1c7-7 12-21 12-32v-20l-32-33-32-33h64v-20h-110v7c0 4 19 26 41 49l42 43-6 15-6 16h-32l-5-15c-4-8-12-15-20-15-18 0-18 9 3 32l16 18h53l12-12zm136-4c23-23 20-39-14-71-16-15-30-31-30-35 0-5 14-8 30-8h30v-20h-110v13c0 8 18 28 40 46l40 32v30l-16 6-17 6-12-16c-7-10-17-17-24-17h-11v15c0 17 27 34 57 35h22l15-16zm134 4c7-7 12-21 12-32v-20l-32-33-32-33h74v-20h-120v10c0 5 18 24 40 41l40 32v18c0 10-5 21-11 24l-10 7-18-16c-21-19-31-20-31-3 0 33 62 51 88 25zm140 0c7-7 12-20 12-30v-17l-31-36-31-35h62v-20h-110v7c0 4 19 26 41 49l42 43-6 15-6 16h-32l-5-15c-4-8-12-15-20-15-18 0-18 9 3 32l16 18h53l12-12zm-1041-64 6-16-14-9-14-8-14 13-13 14 6 11c4 6 14 11 22 11h15l6-16zm498-9v-20h-30l-3 23-4 24 19-4 18-3v-20zm-792 50-6-17 14-8 13-9 19 10 18 10-4 12c-2 7-13 13-25 15l-22 3-7-16zm10-52-13-5v-36l15-6c8-3 22-3 30 0l15 6v36l-16 6c-9 3-16 6-17 5-1 0-8-3-14-6zm131 52c-4-8-4-22 0-30l5-15h42l5 15 6 15-12 15c-16 19-39 19-46 0zm219 0-6-17 14-8 13-9 19 10 18 10-4 12c-2 7-13 13-25 15l-22 3-7-16zm9-54-14-8 4-19 3-19 15-2c8-2 22 1 30 7l15 9-11 18c-13 21-25 25-42 14zm132 54c-4-8-4-22 0-30l5-15h39l6 16 6 17-11 13c-15 18-38 18-45-1zm140 1c-3-8-4-31-2-52l3-39 19-3 19-4 8 14c5 7 9 27 9 44v30l-12 12c-16 16-37 15-44-2z"/></g><g fill="#abae9f" transform="matrix(.1 0 0 -.1 0 300)"><path d="M785 2750c-35-14-59-50-184-266l-121-211v-79l32-50c45-71 75-142 88-212l13-62h60l-7 49c-9 72-41 156-87 234l-41 69 4 21c2 12 59 117 127 234l122 212 18 6 18 5 94-25c117-31 326-61 484-70l120-6 140 11c154 11 331 40 443 71l73 20 20-13 19-13 120-208 120-209v-50l-19-26c-52-75-110-228-111-294v-18h59l6 38c4 20 15 64 26 97l19 60 41 65 42 65 1 36 1 35-114 200c-63 109-124 215-137 236l-24 37-39 12-39 11-98-25c-55-14-139-33-189-42l-90-17-230-5-231-5-134 17-135 17-113 29c-120 31-135 33-167 19zm41-118c-2-4-54-94-116-201l-112-195 16-25c10-14 33-58 53-98l35-72 16-86 17-85h715v677l-122 6-123 6-120 21c-66 11-150 29-187 39l-68 19-4-6zm209-371-16-61 11-20c15-28 16-26 12 20l-4 40h8c5 0 24-23 43-50l33-50-6-24-6-24-36-21c-19-12-39-21-44-21h-10l3 23 2 22-27-3-26-3-7 11-7 11 13 15 12 15 9-13 9-13-7 25c-12 42-7 76 20 133 14 29 27 60 27 68l1 14 5-16c2-10-3-44-12-78zm-23 54c3-3-6-27-19-53l-24-47 5-36 6-36-25 5-25 4v14c0 8 7 17 15 20 8 4 15 13 15 20 0 8-7 17-15 20-23 9-18 23 11 34l25 10-2 17c-1 10-1 21 0 26 1 8 25 10 33 2zm1088 303c-35-10-120-27-189-39l-124-21-121-6-121-7v-670l361-3 362-2 7 47c4 25 16 76 27 112l20 66 39 67c21 36 39 70 39 74 0 10-221 394-229 397-3 2-35-5-71-15zm-107-284 26 6 3-22 3-23 23-3 24-4-6-15c-3-8-6-24-6-36l-1-22-13 31c-8 17-26 40-41 52l-28 22h-73l-22-16c-12-8-31-32-43-52l-20-37 4 21c2 12 0 29-5 38l-9 16h41l11 23 11 24 22-4 22-5 13 16 14 16 12-16 12-17 26 7zm11-60 26-27v-37h-180v16c0 8 13 29 29 45l29 29h69l27-26zM310 1688c-52-89-95-164-95-166 1-2 43-78 95-168l95-164h2190l95 164c52 90 93 168 92 172-1 5-43 80-94 167l-92 157H404l-94-162zm490 23v-30l-37-3-36-3-1-100-1-100-32-3-33-3v211h-80v60h220v-29zm78-28 3-53h88l3 53 3 52 33 3 32 3v-271h-70v100h-90v-100h-70v271l33-3 32-3 3-52zm362 27v-30h-130v-49l63-3 62-3 3-22 3-22-63-3-63-3v-50l68-3 67-3v-49h-200v270h190v-30zm204 1 26-24v-64l-21-27-21-27 26-50 27-49h-71l-22 45-22 45h-46v-90h-60v272l79-3 79-4 26-24zm132-34c17-32 35-59 39-59s22 27 39 59l31 58 28 3 27 3v-271h-60v73l-1 72-25-42-26-43h-26l-26 43-25 42-1-72v-73h-60v271l28-3 27-3 31-58zm354 37 10-25v-170l25-24 24-25h-36l-11 26-12 25-48-3-47-3-10-22-10-23h-64l35 103c20 56 42 117 49 135l14 32h71l10-26zm-950-314v-20h40v40h20v-90h-10c-5 0-10 7-10 15v15h-40v-15c0-8-4-15-10-15h-10v90h20v-20zm95-10c4-16 10-30 15-30s11 14 15 30l7 30h19l-7-22c-15-51-24-68-34-68s-19 17-34 68l-7 22h19l7-30zm123 3c5-16 13-35 16-43l7-16-41 1h-40v8c0 17 30 77 39 77 5 0 14-12 19-27zm100 9 4-13-26 7-26 6v-62h13c7 0 18 5 25 12l12 12v-32l-19-5-18-4-17 9-16 9v67l13 6c6 2 21 4 31 3l19-2 5-13zm96 12c9-3 16-10 16-15v-9l-25 6-25 6v-10c0-5 11-13 25-16l25-6v-38l-17-4c-24-6-53 1-53 13v9l25-6 25-6v9c0 6-11 15-25 21l-25 12v14c0 21 26 31 54 20zm94-6 12-12v-55l-19-11c-25-13-27-13-45 6l-16 15v23c0 26 17 46 40 46 9 0 21-5 28-12zm70-71 27-4-32-2-33-1 2 48 1 47 4-42 4-42 27-4zm52 43v-40h30l4 23c3 12 7 31 9 42l5 20 1-42 1-42-17-10-17-9-18 9-18 10v79h20v-40zm140 30c0-5-7-10-15-10h-15v-70h-20v70h-15c-8 0-15 5-15 10v10h80v-10zm30-35v-45h-20v90h20v-45zm78 33 12-12v-55l-20-11-20-11-20 11-20 11v55l12 12c7 7 19 12 28 12s21-5 28-12zm59-15 22-28 1 28v28l10-6 10-6v-79h-13c-7 0-20 12-29 28l-17 27-1-27v-28h-20v45c0 25 3 45 7 45s17-12 30-27zm107 21c9-3 16-10 16-15v-9l-25 6-25 6v-6c0-4 11-11 25-16l25-10v-38l-17-4c-24-6-53 1-53 13v9l25-6 25-6v9c0 6-11 15-25 21l-25 12v14c0 21 26 31 54 20zm-704 240v-35l38 3 37 3 3 24 4 24-14 8c-7 5-25 9-40 9h-28v-36zm545-27c-10-26-15-50-12-53s18-4 34-2l30 3-17 50-17 50-18-48zm-699-252-5-15h14c16 0 20 16 6 24l-9 6-6-15zm278 10c-4-8-4-22 0-30l5-15h31v60h-31l-5-15zm368-12 3-28h30l3 28 3 27h-42l3-27zM176 1788c-54-88-149-255-149-264 0-6 37-75 82-153l83-141h169l-32 58c-18 31-57 97-85 146l-52 88 65 112c36 61 74 126 85 144l20 32H190l-14-22zm2482-10c11-18 41-69 67-113s55-94 66-111l19-31-53-89c-29-49-68-115-86-146l-32-58h169l75 128c41 70 79 136 84 147l11 20-82 140-82 140-88 3-88 3 20-33zM416 1139c-3-17-6-64-6-105 0-236 124-430 390-609l85-57 140-68c158-77 400-170 460-177l41-5 86 30c241 85 451 185 598 283l95 63 76 76 76 75 37 58c21 32 49 88 63 125l26 67 5 102c2 56 2 117-2 137l-7 36h-54V925l-19-55c-10-30-38-87-62-126l-44-71-76-72-76-73-83-54c-46-30-148-86-227-124-146-70-403-170-438-170-34 0-289 99-439 171l-144 69-86 57-86 57-85 86-86 85-37 71-37 71-16 69-16 69 6 93 5 92h-56l-7-31zm120-6c-3-21-6-68-6-104v-67l20-64 20-64 41-65 42-64 60-58c33-32 104-87 157-123l96-64 125-59c68-32 186-82 263-111l139-52 26 7c60 15 324 122 426 172 61 30 148 80 195 111l85 56 77 77 76 78 43 86 43 86 4 84c2 46 1 104-2 129l-7 46H543l-7-37zm328-139c9-8 16-18 16-20 0-13-25-50-42-62-10-7-18-17-18-23v-9h60v-30H760v13c0 7 18 31 40 52 41 40 49 59 29 70l-10 7-18-16c-34-30-57-13-25 18l15 16h58l15-16zm146-4 11-20-10-18-10-19 10-10 11-11-4-23-3-23-33-10-32-9-25 11-25 12 2 52c1 29 5 61 10 71l9 17h78l11-20zm134 4c23-22 20-41-15-96l-31-48h-30l7 18c4 9 9 22 11 27l4 10-22 10-23 10-3 28-3 28 12 15 11 14h67l15-16zm214 7 14-8-3-29c-1-16 2-37 6-48l8-19-10-16c-6-9-22-20-36-25l-26-10-25 12-25 11 1 58 1 58 10 13 9 12h32c17 0 37-4 44-9zm147-11 17-19-5-24c-4-12-22-41-41-62l-34-40-8 8-8 8 13 20c7 12 11 22 9 22-2 1-12 7-23 13l-20 11-3 27-3 27 12 15 11 14h65l18-20zm139-2 16-22v-76l-20-20c-24-24-48-25-78-4l-22 15v105l12 12 12 12h65l15-22zm214 10c7-7 12-22 12-33v-22l-25-23c-14-13-25-27-25-32v-8h62l-4-12-5-13-56-3-57-3v38l40 32 40 32v14c0 8-5 17-11 20l-10 7-18-16c-32-29-59-8-29 22l12 12h62l12-12zm140 0c7-7 12-21 12-32v-20l-32-33-32-33h64v-30h-109l-7 12-7 12 41 37 42 37v15c0 9-5 19-12 23l-11 7-12-16c-7-10-17-17-24-17-15 0-14 23 1 38l12 12h62l12-12zm136-4c23-23 20-39-14-71-16-15-30-31-30-35 0-5 14-8 30-8h30v-30h-120v13c0 7 18 31 40 52 41 40 49 59 28 71l-11 7-12-16c-12-17-45-24-45-10 0 3 7 15 17 25l16 18h56l15-16zm134 4c7-7 12-22 12-33v-22l-25-23c-14-13-25-27-25-32v-8h62l-4-12-5-13-56-3-57-3v39l40 32 40 32v13c0 8-5 17-11 20l-10 7-18-16c-32-29-59-8-29 22l12 12h62l12-12zm-1040-71 3-17-16-6-16-7-11 11-11 11 7 16 6 16 17-3 18-3 3-18zm502 4c0-11-5-23-11-27l-11-6-15 15-15 15 6 11c4 6 16 11 27 11h19v-19zm-795 49c-9-15 3-30 24-30 23 0 31 9 24 26l-5 14h-18c-11 0-22-4-25-10zm-5-80v-21l28 3 27 3v30l-27 3-28 3v-21zm150 75-12-15 6-15c7-19 30-19 46 0l12 15-12 15c-16 19-24 19-40 0zm215 6c-9-16 3-31 26-31h20l-3 17-3 18-17 3-16 3-7-10zm-5-81v-21l28 3 27 3v30l-27 3-28 3v-21zm151 80-13-7 4-19 3-19h40l3 21 3 21-14 6c-8 3-19 2-26-3zm140-4-12-15 3-38 3-38h40v98l-11 4c-6 2-16-3-23-11z"/></g><g fill="#839640" transform="matrix(.1 0 0 -.1 0 300)"><path d="M785 2750c-35-14-59-50-184-266l-121-211v-79l32-50c45-71 75-142 88-212l13-62h59l-7 43c-13 85-45 164-114 286l-20 33 9 22c4 11 61 113 126 225l119 204 17 11 17 10 108-27c59-15 153-35 208-44l100-17 260-1h260l110 18c61 10 152 29 203 43 112 29 124 29 145 7 20-23 257-434 257-447 0-5-20-43-44-85-47-81-80-169-89-238l-5-43h57l6 38c4 20 15 64 26 97l19 60 41 65 42 65 1 36 1 35-114 200c-63 109-124 215-137 236l-24 37-39 12-39 11-98-25c-55-14-139-33-189-42l-90-17-230-5-231-5-134 17-135 17-113 29c-120 31-135 33-167 19zm31-142c-8-13-60-102-115-198l-99-174 25-41c57-93 103-222 103-292v-33h720v668l-87 7c-137 9-361 43-440 65-90 25-89 25-107-2zm224-341c-6-22-9-42-6-45s6 2 6 11c0 10 5 17 10 17 6 0 10-4 10-9 0-4 14-25 30-46l30-38v-50l-17-19c-9-10-22-18-28-18-7 0-15-7-19-15l-5-15-15 6-15 6-3 21-3 22-13-2c-6-2-18-4-24-5l-13-3 3 33 2 32h-40v16c0 9 8 23 18 30l17 13-19 14-19 14 5 14 5 14h38l-3 27-3 26 11 7 11 7 14-12 14-12-19-39c-11-21-20-44-20-51 1-18 59 113 61 137l2 20 4-35 5-35-12-38zm1014 338c-102-26-274-51-411-61l-93-6v-668h720v28c0 67 59 225 115 312l16 25-113 197-113 198-15-1c-8-1-56-11-106-24zm-55-267 21 12v-18c0-23 19-42 43-42h19l-12-15-12-14 7-21 6-20h-10c-6 0-13 11-17 24-3 13-16 34-28 45l-23 22-35 5-35 6-30-16-30-15-18-36c-19-42-20-42-28 2l-6 32 22 3 22 3 3 27 3 27 26-12 26-12 15 23 14 22 18-23 19-22 20 13zm10-62c5-6 14-24 20-39l11-27h-190v18c0 9 8 27 18 40l17 23 30 8 30 8 27-9c15-5 31-15 37-22zM312 1688l-94-161 11-24c6-13 50-89 97-169l85-144h2178l85 144c47 80 91 156 97 169l11 24-94 161-93 161H405l-93-161zm568 1v-49h90v100h71l-3-137-3-138h-60l-3 53-3 52h-88l-3-52-3-53h-60l-3 110-3 110-39-3-39-4-3-107-3-106-32-3-32-3-3 108-3 108-37 3-38 3v59l150-1h150v-50zm549 36c32-16 41-33 41-78v-31l-21-22-20-22 23-43 23-44 3 128 3 127h64l33-60c19-33 35-60 37-60s19 27 37 60l33 60h65l1-127v-128l46 128 45 127h77l12-22 11-21-1-84-2-84 31-30c36-36 37-41 8-37l-23 3-10 23-10 22h-102l-11-24-11-25-63 2-63 2-5 75-5 75-19-43-19-42h-44l-19 42-19 43-5-75-5-75-60-2c-34-1-66 1-72 5-5 4-20 26-32 50l-21 42h-40v-98l-132 1-133 2-3 138-3 137h352l28-15zm-449-325v-20h32l5 20c3 11 9 20 14 20h9v-100h-20v40h-40v-40h-20v100h20v-20zm96-5c3-14 10-25 14-25s11 11 14 25l6 25h22l-6-25c-25-98-47-98-72 0l-6 25h22l6-25zm129-11c8-20 15-43 15-50v-14l-20 12-20 13-19-12c-28-17-31-6-13 43l16 44h26l15-36zm95 21 13-15-7-7-6-7-12 12c-7 7-18 12-25 12h-13v-49l12-7 12-8 4 12c4 14 32 16 32 2 0-5-9-14-20-20l-21-11-18 6-19 6-6 25-6 24 10 20 11 20h47l12-15zm108-3 4-13-26 7c-35 8-33-1 4-20l30-14v18c0 9 7 23 14 30l15 12 23-4 23-3v-78l-17-11-18-11-20 13-20 12-21-10-20-11-19 6c-11 4-20 11-20 17v10l25-6 25-6v9c0 5-11 12-25 15l-25 6v19c0 25 10 32 39 29l24-3 5-13zm132-22v-40h40v-21l-32 3-33 3-3 48-3 47h31v-40zm72 3 3-38h20l3 38 3 37h140l-3-47-3-48h-20l-3 38-3 37h-29v-80h-20v80h-30v-49l-16-15c-8-9-22-16-29-16s-21 7-29 16l-16 15v28c0 54 27 57 32 4zm247 23 12-15-3-27-3-27-17-11-18-11-17 11-18 11-3 27c-2 15-1 34 2 42l5 14h49l11-14zm60-13 20-28 1 28v27h20v-89l-9-5-9-6-21 27-20 28-1-28v-28l-10 6-10 6v89h9c5 0 19-12 30-27zm119 9 4-13-29 7-28 7 7-8c4-4 17-13 30-19 12-6 23-16 25-23l4-12-21-11-21-11-19 6c-11 4-20 11-20 17v10l25-6 25-6v9c0 5-11 12-25 15l-25 6v19c0 25 10 32 39 29l24-3 5-13zm-855 281-63-4v-49h121l-3-27-3-28-57-3-58-3v-49h130v85c0 47-1 84-2 83-2-1-31-3-65-5zm137-33v-31l38 3 37 3v50l-37 3-38 3v-31zm552-10c-5-14-12-35-16-47l-7-23h61l-1 13c0 6-6 28-14 47l-13 35-10-25zm-702-265c0-8 4-15 10-15h9l-5 15c-4 8-8 15-10 15s-4-7-4-15zm275 15-6-10 6-21 7-20 11 4 12 4v46l-12 4c-6 2-14-1-18-7zm369-4c-3-9-3-23 0-32l6-16 13 5 12 4v46l-12 4-13 5-6-16zM110 1669c-45-77-80-146-78-152 2-7 39-74 83-150l79-137h158l-6 18c-4 9-41 75-82 145l-75 128 80 139c45 76 81 141 81 144 0 4-36 6-79 6h-79l-82-141zm2540 135c0-4 31-59 69-123 37-64 73-126 80-138l12-23-75-127c-41-71-78-136-82-145l-6-18h158l79 137c44 76 81 143 83 150 2 6-33 75-78 152l-82 141h-79c-43 0-79-3-79-6zM416 1139c-3-17-6-64-6-105 0-236 124-430 390-609l85-57 140-68c158-77 400-170 460-177l41-5 86 30c241 85 451 185 598 283l95 63 76 76 76 75 37 58c21 32 49 88 63 125l26 67 5 102c2 56 2 117-2 137l-7 36h-54l3-110 4-111-21-67-20-67-38-64-38-65-71-71-71-72-94-63-94-63-140-67c-77-38-202-91-278-119l-137-51h-59l-129 49C980 365 792 475 637 640l-74 78-36 74-36 73-12 54-11 55 4 98 5 98h-54l-7-31zm129 22c-3-6-8-45-12-88l-6-78 17-64c9-35 31-91 49-125l32-61 68-72 68-72 90-61 89-61 142-69c79-38 205-92 280-120l137-50 123 44c325 118 546 243 686 387 67 70 98 116 128 190l24 59 6 59 7 59-7 66-8 66H551l-6-9zm313-157 22-15v-37l-25-31-26-30 23-3 23-3 3-17 3-18H760v38l40 32 40 32v28h-40v-20h-40v14c0 17 38 46 60 46 9 0 26-7 38-16zm149-6 13-10-2-32c-1-17 2-39 6-48l8-16-21-21-21-21h-60l-21 21-21 21 8 16c4 9 7 31 6 49l-2 32 23 16 22 16 25-6c14-4 30-11 37-17zm140 0 13-10v-49l-30-45-31-44h-41l16 25 16 24-23 12c-44 24-48 49-11 85l25 26 27-7c15-4 33-11 39-17zm219 1 11-9 1-60 1-60-19-10c-10-5-31-10-46-10h-27l-19 17c-19 17-24 48-8 58l9 6-5 28-6 28 24 17 23 17 25-6c14-4 30-11 36-16zm141-1 13-10v-50l-32-44-31-44h-19c-22 0-23 8-2 31l17 18-26 10-26 10-7 27-7 27 28 24 28 24 26-6c14-4 32-11 38-17zm141-5 12-17v-89l-17-19-16-18h-57l-20 20-20 20v81l26 25 25 26 27-7c15-3 33-13 40-22zm220 0c19-26 15-42-18-73l-31-29 28-3 28-3 3-17 3-18h-120l-7 11-7 12 47 44 47 43-6 10c-8 13-35 13-35 0v-10h-40v14c0 8 10 22 23 31l22 16 25-6c14-3 31-13 38-22zm120 11 22-15v-46l-26-24-26-24 29-5 28-5v-30l-62-3-63-3v13c0 8 18 32 40 53s40 45 40 52v13h-14c-8 0-18-4-21-10-7-12-45-14-45-2s14 28 35 40c27 15 37 15 63-4zm140 0 22-15v-37l-26-31-26-31h52v-40h-120v38l40 32 40 32v28h-40v-20h-40v14c0 17 38 46 60 46 9 0 26-7 38-16zm125 7c13-5 27-17 31-26l6-16-12-22c-6-12-21-29-32-37l-21-15 30-5 30-5 3-18 3-17h-120l-7 12-7 12 41 37 42 37v32h-14c-8 0-18-4-21-10-3-5-13-10-21-10h-14v14c0 14 36 46 52 46 3 0 18-4 31-9zm-1025-85-3-21h-40l-3 19-4 19 13 7c7 5 18 6 26 3l14-6-3-21zm510-4-3-17-23-3-22-3-6 15-6 16 12 15 12 15 20-11 19-10-3-17zm-791 62c-4-4-7-13-7-21v-13h41l-3 17c-3 18-20 27-31 17zm-12-74-7-12 10-10 10-10 18 4 19 3v30l-22 3-21 3-7-11zm139 59-6-11 15-15 15-15 11 6c6 4 11 16 11 27v19h-19c-11 0-23-5-27-11zm226 6-12-15 17-6 16-7 11 11 10 10-6 11c-10 15-21 14-36-4zm-5-65c-9-15 4-30 26-30h19v40h-19c-11 0-23-4-26-10zm138 54-6-16 14-9c20-13 34-6 37 19l3 22h-42l-6-16zm144 9c-10-9-8-66 2-82l9-14 16 6 16 6v91h-18c-10 0-22-3-25-7z"/></g><g fill="#596042" transform="matrix(.1 0 0 -.1 0 300)"><path d="M816 2608c-10-18-198-344-212-368-1-3 13-30 32-60 44-70 73-147 88-235l12-70 357-3 357-2v668l-92 6c-146 11-304 34-416 61-57 14-105 25-107 25-3 0-11-10-19-22zm272-279 8-44 13 35 14 35 7-37c3-20 14-47 23-61 9-13 20-40 25-58l10-34 1 20c1 11-10 41-24 67s-25 52-25 59v11l13-11c8-6 17-8 20-5 3 4 14 4 23 0l17-7-11-11-10-10 5-14c3-8 11-14 18-14 8 0 17-5 21-12l7-11-19-14-19-13 13-20c6-11 12-24 12-30v-10h-42l4-25 5-25-13-10-12-11-7 11c-11 17-25 11-35-15-11-28-25-32-33-11l-6 14 19 17c11 10 22 26 25 36l6 18-12 23c-7 13-23 36-35 51l-24 29v53c0 30-5 66-11 82l-10 28 16-16 15-15 8-45zm-40-11c-3-29-9-62-13-73l-8-20 16 20 16 20 1-16c0-9 14-33 30-54l30-38v-50l-17-19c-9-10-22-18-28-18-7 0-15-7-19-15l-5-15-16 6-15 6v17c0 10-3 21-7 24l-6 7-14-11-13-11-15 12-16 13 11 11c5 5 10 16 10 23v13h-38l-5 14-5 13 20 17 20 17-17 13-18 13 5 14 5 14h38l-3 27-3 26 11 7 11 7 21-19c12-10 18-13 15-6l-7 12 10 6c5 3 10 15 10 26 0 10 3 19 6 19 4 0 4-24 2-52zm-53-59c-9-17-15-33-13-35 3-2 12 12 21 31 21 43 13 47-8 4zm1120 360c-96-30-294-61-477-75l-88-6v-668h715l12 78 12 77 54 107 54 108-111 195-111 194h-15c-8 0-28-5-45-10zm-116-281 21 12v-18c0-23 19-42 43-42h19l-12-15-12-14 7-21 6-20h-8c-5 0-17 16-26 35l-16 34-32 16-31 17-35-7-35-6-24-26-24-26v-37h-20v19c0 11-3 26-6 34l-6 15 24 4 23 3 3 27 3 27 26-12 26-12 15 23 14 22 18-23 19-22 20 13zm7-60c12-11 24-30 27-44l4-24h-187v16c0 8 5 24 11 35l11 21 31 13 32 14 25-6c14-3 35-14 46-25zm-181-68 6-10h219l19 12 18 11 19-7 19-8-23-9-23-9 6-10c3-5 13-10 21-10s14-4 14-10v-10h-60v20h-83l18-20 18-20 26-1 26-1-17-5-17-4 6-16 6-16-16 6-17 6v-13c0-8-7-17-16-20l-17-6-13 11-14 11-1-23-2-24-4 23-5 23-14-12-14-12-7 7-6 6 21 23c22 23 28 48 15 60l-6 7-19-17-18-16v-57h-10c-5 0-10 7-10 16v16l-15-12-15-12v10c0 6 6 14 12 18l13 8-25 7-25 7 31 1 31 1 18 20 18 20h-82l-6-10c-3-5-17-10-30-10s-27 5-30 10l-6 10h41v30h-41l6 10c3 6 17 10 30 10s27-4 30-10zm125-77v-30l20-18 20-18v60l-20 18-20 18v-30zM396 1828c-21-35-152-260-165-286l-12-22 93-160 93-160h2190l94 161 93 160-65 112c-35 62-78 135-94 162l-29 50-1092 3-1091 2-15-22zm1705-88c39-11 63-33 73-67l7-23h-66l-13 20-12 20h-23c-12 0-28-4-36-9l-14-9-5-54-4-53 19-24 20-24 26 7 26 6 6 20 6 20h29c35 0 43-11 31-44l-10-25-32-16-31-17-48 4-48 3 5-7 4-8h-58l-11 25-12 25h-97l-11-25-12-25-62 3-63 2-5 75-5 75-19-43-19-42h-44l-19 42-19 43-5-75-5-75-68-2-67-2-25 49-25 50h-30v-37c0-21-4-43-8-49l-7-12-132-1-133-1v280h371l24-25 25-24v-81l-20-20-21-21 23-41 23-40 3 126 3 126h66l32-60c18-33 34-60 36-60s18 27 36 60l32 60h66l3-122 3-123 14 40c7 22 27 77 43 123l30 82h79l12-30 13-29 27 29 27 29 28 4c15 2 29 5 32 5 3 1 21-3 41-8zm-1221-51v-49h90v100h70v-281l-32 3-33 3-3 53-3 52h-88l-3-52-3-53h-60l-3 108-3 109-15-6c-9-3-26-6-39-6h-24l-3-102-3-103h-70l-3 102-3 102-32 3-32 3-3 33-3 32 150-1h151v-50zm1492 40 20-11 14-33 14-34v-92l-14-34-14-33-20-11-21-11h-45c-25 0-56 5-69 11l-25 11-11 25-11 24v141l29 29 29 29h103l21-11zM983 1400c3-11 10-20 15-20s12 9 15 20 10 20 16 20h11v-100h-11c-6 0-13 9-16 20l-5 20h-28v-40h-20v100h9c5 0 11-9 14-20zm93-5c7-30 24-33 24-6 0 20 17 37 27 28 8-9-22-90-35-95l-12-4-15 36c-8 19-15 42-15 51 0 24 19 17 26-10zm127-5 13-29 11 29 11 30h50l12-15 13-15-7-7-6-7-12 12c-7 7-18 12-25 12h-13v-23c0-32 8-38 31-24l18 11 7-7 7-7-13-15c-16-19-44-19-64 1l-16 15v-15c0-9-4-16-10-16-5 0-10 5-10 10v10h-18c-10 0-23-5-30-12-20-20-23-3-6 45l16 47h29l12-30zm205 12 4-13-26 7c-35 8-33-1 3-19l29-14 6 29 6 29 32-3 33-3 3-42 3-42-26-7-25-6-16 12-15 13-11-11c-7-7-22-12-34-12h-22l-13 17-14 16 28-5 27-5 5 7 5 8-25 6-25 6v19c0 25 10 32 39 29l24-3 5-13zm132-22v-40h40v-21l-32 3-33 3-3 48-3 47h31v-40zm72 3 3-38h20l3 38 3 37h139v-102l-12 4-13 5-3 36-3 37h-29v-80h-20v80h-30v-21c0-11-5-29-10-40l-11-19h-19c-10 0-26 7-34 16l-16 15v69h29l3-37zm253-7v-39l-17-11-18-11-17 11-18 11-3 27c-2 15-1 34 2 42l6 15 32-3 33-3v-39zm48 24 14-21 6 21c3 11 10 20 16 20h11v-100h-9c-5 0-19 12-30 28l-20 27-1-27v-28h-20v100h9c6 0 16-9 24-20zm125 2 4-13-28 7-27 7 7-12c4-6 13-11 20-11 8 0 19-7 26-15l12-15-12-16-13-15-25 3-25 3-5 14-5 14 22-6 21-5 5 8 5 8-25 6-25 6v19c0 25 10 32 39 29l24-3 5-13zm-855 281-63-4v-49h121l-3-27-3-28-57-3-58-3v-49h130v85c0 47-1 84-2 83-2-1-31-3-65-5zm147-33v-31l33 3 32 3v50l-32 3-33 3v-31zm612-47-2-72 23-23c12-13 15-15 7-5l-15 19-6 77-6 76-1-72zm-75 14-16-47h59l-1 13c0 6-6 28-13 47l-13 34-16-47zm403 58c-7-8-15-35-18-60l-5-45 17-25 16-25h49l11 19 10 20v92l-10 20-11 19h-47l-12-15zm-1100-305c0-5 5-10 11-10h10l-6 10c-3 6-8 10-11 10-2 0-4-4-4-10zm280 0v-32l13 5 12 4v46l-12 5-13 4v-32zm365 20c-8-13 3-50 15-50s23 37 15 50c-3 5-10 10-15 10s-12-5-15-10zM547 1157c-3-8-8-42-12-78l-7-64 16-73 15-72 33-63 32-62 81-81 80-81 88-57c111-73 313-170 490-235l138-51 137 51c75 27 201 81 280 119l142 69 90 62 90 61 73 77 72 77 33 67 32 67 12 67 11 68-9 70-9 70-951 3-952 2-5-13zm311-153 22-15v-37l-26-31-26-31h52v-40H761l-6 11-7 11 46 43c25 23 46 47 46 54v11h-40v-20h-40v14c0 17 38 46 60 46 9 0 26-7 38-16zm141 0 23-16-5-27-5-26 10-18 9-18-16-25-15-24h-73l-19 17c-19 17-24 48-8 58l9 6-5 28-6 28 23 17c30 20 48 20 78 0zm148-6 13-10v-54l-31-42-31-42h-19c-23 0-25 13-3 31l15 13-25 13-26 14-6 26-7 26 28 24 28 24 26-6c14-4 32-11 38-17zm209 7 21-14 1-61 1-60-19-10c-10-5-31-10-46-10h-27l-19 17c-18 16-24 44-11 57 4 4 6 22 5 40l-3 32 23 12c32 15 50 14 74-3zm151-7 13-10v-49l-30-45-31-44h-19c-24 0-25 8-4 31l15 17-20 7c-12 3-26 15-32 27l-11 20 6 22 6 23 22 11 23 11 25-5c14-3 31-10 37-16zm141-5 12-17v-89l-17-19-16-18h-66l-15 22-16 22v77l26 25 25 26 27-7c15-3 33-13 40-22zm212 7c26-26 25-42-5-79l-26-30 23-3 23-3 3-17 3-18h-131v14c0 7 18 30 40 50l40 36v30h-15c-8 0-15-4-15-10v-10h-40v14c0 18 38 46 62 46 10 0 27-9 38-20zm142-3c4-7 8-21 8-33v-21l-26-24-26-24 29-5 28-5 3-18 3-17h-131v13c0 7 18 31 40 52s40 45 40 52v13h-14c-8 0-18-4-21-10-7-12-45-14-45-2 0 13 23 39 40 45 20 8 63-2 72-16zm126 7 22-15v-43l-27-28-27-28h54v-40h-120v38l40 32 40 32v28h-40v-20h-40v14c0 17 38 46 60 46 9 0 26-7 38-16zm142-4c26-26 25-42-5-79l-26-30 23-3 23-3 3-17 3-18h-131v13c0 7 18 31 40 52s40 45 40 52v13h-14c-8 0-16-5-18-11l-4-11-24 4-25 3 27 28 27 27h41l20-20zm-1036-65 5-14-14-11-15-12-15 6-15 5v39l13 5c17 6 34-2 41-18zm496 10 12-15-6-15-5-15h-42l-5 15-6 15 12 15c7 8 16 15 20 15s13-7 20-15zm-783 39c-4-4-7-13-7-21v-13h41l-3 17c-3 18-20 27-31 17zm-12-74-7-12 10-10 10-10 18 4 19 3v30l-22 3-21 3-7-11zm140 60c-9-15 4-30 26-30h19v40h-19c-11 0-23-4-26-10zm232 14c-4-4-7-14-7-21v-14l18 3 17 3v14c0 16-18 25-28 15zm-12-74c-9-15 4-30 26-30h19v40h-19c-11 0-23-4-26-10zm140 61c-9-16 3-31 26-31h20l-3 17-3 18-17 3-16 3-7-10zm141-6c-3-9-6-27-6-40v-23l15-12 16-13 10 10 10 10-3 39-3 39-16 3-16 3-7-16z"/></g><g fill="#45473c" transform="matrix(.1 0 0 -.1 0 300)"><path d="m720 2435-113-197 46-86c44-84 68-154 82-234l6-38h709v660h-53c-117 0-471 55-552 86l-13 5-112-196zm343-32c8-10 19-34 24-53l9-35 13 23c15 29 29 28 41-3l9-25 23 3 23 2v-60l18-3 17-3v-37l-12-5-13-4 14-25 13-26-7-11-7-12-16 3-17 3 3-27 3-26-12-7-11-7-10 10-10 10-14-5-14-5v-38h-40v15c0 20-17 19-28-2l-10-16-16 6-16 6v43l-22-5-22-6-13 11-13 11 11 13 11 13-7 11c-3 5-13 10-21 10s-14 2-14 4-3 11-6 20l-6 16h32v14c0 8-4 18-10 21-5 3-10 15-10 27v20l19-5 20-5 5 14 5 13-10 7-10 6 12 14 11 14 23-6 23-6 11 29 11 28-3-58-2-57h15v116l-16 22-15 22h9c5 0 16-8 25-17zm16-191c5-10 18-25 27-33l18-14-24 33c-26 35-36 42-21 14zm1006 397c-110-29-291-57-418-65l-117-7v-657l357 2 358 3 7 48c11 77 38 152 83 231l41 73-112 194c-61 106-115 194-120 195s-40-6-79-17zm-104-273c8 1 22 5 32 9l17 7-5-15-6-14 17-17 17-17 13 5 13 5-6-35-6-34h41l12-15 12-15h-42v-30h42l-12-15c-14-17-46-20-55-5l-6 10h-70l6-10 6-10h58l6-10 6-10h-45l12-12c7-7 12-16 12-21v-9l-15 6-16 6-5-15-6-15-8 5c-5 3-12 1-15-5l-7-11-14 12-14 11v-16c0-9-4-16-10-16-5 0-10 7-10 16v16l-14-11-15-12-18 18-18 18-18-3-17-3v8c0 5 5 14 12 21l12 12h-34v20h59l7 11 7 12-39-7c-22-4-50-8-63-9l-24-2-4 13-5 12h32v30h-15c-26 0-16 18 15 29l30 10v15c0 8-4 18-10 21-5 3-10 10-10 15v9l15-5 15-6 15 12 15 12v51l21-19 22-19 20 27 20 27 12-22 11-22 15 1zm-43-23c7-3 16-2 19 1 4 3-2 6-13 5l-19-1 13-5zm49-18c12-9 29-26 38-38l15-21v10c0 15-49 64-64 64h-10l21-15zm-121-14c-9-10-21-32-26-50l-9-31h219l-1 18-1 17-5-12-5-13h-188v19c0 10 9 30 21 45 23 30 20 35-5 7zm42-148c-19-21-24-53-9-53 5 0 14 7 21 14l12 15-4 22-3 21-17-19zm42-1v-19l20-18 20-18v24c0 25-16 49-32 49-4 0-8-8-8-18zM426 1768c-7-13-43-73-79-134l-65-112 80-136 80-136h2114l77 133c42 74 77 137 77 140s-34 65-76 136l-76 131H440l-14-22zm1711-37 31-20 7-21 7-22 18 29 18 30 31 13 31 13 43-6 42-6 28-31 27-30v-150l-28-31-28-32-50-4-49-4-33 21-33 20-7 21-8 20-13-25-14-25-31-15-31-14h-146l-9 24-10 24h-98l-6-25-6-25h-140v73l-1 72-20-37-19-38h-50l-19 38-20 37-1-73v-73l-72 3-73 3-25 47-25 48h-24l-3-47-3-48-137-3-138-3v281h366l22-16c13-9 27-26 32-38l9-21v38l1 37h68l34-60 33-60 33 60 33 60h69l1-122v-123l43 120 43 120 46 3 46 3 7-26 7-26 26 24c32 30 45 35 96 36l40 1 32-19zm-1257-41v-50h90v100h70v-280h-70v110h-90v-110h-70v216l-40-4-40-4v-209l-37 3-38 3-3 103-3 102h-69l-6 24-6 25 7 10 6 11h299v-50zm110-285c0-8 5-15 10-15 6 0 10 7 10 15v15h62l5-20c3-11 9-20 14-20s9 9 9 20v20h38l-16-50-16-50h-32l-16 48-16 47-1-47-1-48h-30v40h-20v-41l-17 3-18 3-3 48-3 47h41v-15zm215-12 7-28 10 28 10 28 36-3 37-3 3-17 3-18h-14c-9 0-17 5-19 12l-4 12-12-8c-7-4-12-16-12-27v-21l30 7 30 7v-10c0-5-6-15-14-21l-14-11-33 1c-19 1-45 6-58 13l-24 11-4-12c-5-15-33-17-33-3 0 5 7 28 16 50l16 40h36l7-27zm201 16 6-11 11 11c15 15 60 14 75-1l12-12v24h30v-70h40v70h30v-70h30v70h140l1-22v-23l9 23 9 22h62l9-22 9-23v23l1 22h11c7 0 18-8 25-17l13-18 1 18v17h30v-30c0-16 4-30 8-30s8 12 7 28v27l31 3 31 3 7-17 6-16-25 4c-32 7-32 0 0-12l25-10v-40l-27-6-26-7-19 12-18 11v-10c0-16-22-12-36 8l-13 17-1-17v-18h-30l-1 23v22l-9-22-9-23h-62l-9 23-9 22v-22l-1-23h-30v80h-30v-80h-20v80h-30v-56l-12-12c-7-7-21-12-33-12s-26 5-33 12l-12 12v-24h-70v18l-1 17-10-17-10-18h-20c-11 0-29 5-39 10l-19 10-6-10c-3-5-17-10-29-10h-24l-13 17-14 16 13 5 13 4-11 13-10 12 6 17 6 16h57l7-11zm630 268-17-13 3-63 3-64 23-8 23-9 23 25 23 25h63v70h-68l-16 25c-18 28-34 31-60 12zm240-3-16-15v-108l16-15c19-19 25-20 48-3l19 14-2 59-1 59-17 13c-22 16-28 15-47-4zm-1156-14v-19l58-3 57-3 3-32 3-33h-121v-40h130v150h-130v-20zm210-10v-30h48l11 14 11 13-6 17-6 16h-58v-30zm538-39-16-41h29c32 0 33 1 15 49l-12 34-16-42zm-398 7c0-6-8-20-17-30l-17-19 22-42 21-42v73c1 39-1 72-4 72s-5-5-5-12zm-95-228c3-4 14-10 25-13l20-5v8c0 4-11 10-25 12l-24 5 4-7zm75-15v-25h20v50h-20v-25zm370 0v-25h20v50h-20v-25zM544 1138c-4-18-7-67-7-108l1-75 21-64c58-169 205-312 461-448 105-56 410-181 463-190l33-5 140 52c168 62 370 160 479 232l80 53 82 82 82 82 34 73 35 73 12 59 12 59-7 65c-4 36-9 71-12 79l-5 13H552l-8-32zm320-134 16-15v-46l-26-24-26-24 29-5 28-5v-30l-67-3-68-3v14c0 7 18 31 40 52 38 37 51 65 31 65-5 0-14-7-21-15s-19-15-26-15h-14v17c0 9 7 25 17 35l16 18h56l15-16zm137 5 20-10-2-34c-2-19 0-37 4-41 12-12 8-42-9-58l-15-16h-78l-15 16-16 15 6 57 6 57 16 13c19 15 57 16 83 1zm144-3 18-13v-58l-29-42-29-42-22-1c-26 0-29 10-10 29l12 12-27 21-28 20v48l20 20 20 20h56l19-14zm220-3 17-16-4-29-5-29 9-5c13-8 9-36-9-56l-16-18h-85l-11 14-11 13 4 59 4 58 18 13c10 7 30 13 45 13h28l16-17zm139-6 23-23 21 23 20 23h50l23-19 24-19v-99l-14-16-13-17h-71l-19 17-18 16v69l-32-48-33-49-22-3c-26-4-28 1-13 28l10 18-25 16-25 16v59l22 15c12 9 33 16 46 16h23l23-23zm358 6 18-16v-41l-27-28-27-28h54v-40h-130v33l40 34 40 35v28h-11c-7 0-17-7-24-17l-12-16-17 6c-21 8-20 23 4 47l20 20h53l19-17zm138-3c26-26 25-42-5-78l-25-30 30-4 29-4 42 42 41 42-12 7-11 7-18-16c-10-9-23-16-29-16h-12v17c0 9 7 25 17 35l16 18h56l15-16 16-15v-49l-26-23-26-22 29-5 28-6 43 34 42 34v14c0 19-20 18-35-3l-12-16-17 6c-21 8-20 23 4 47l20 20h23c12 0 33-7 45-16l22-15v-43l-27-28-27-28h54v-40h-400v39l40 32c22 18 40 38 40 46v13h-14c-8 0-16-7-20-15l-5-15h-41v39l22 15c12 9 33 16 45 16h23l20-20zm-770-55 12-15-6-15-5-15h-51v23c0 39 26 50 50 22zm505-15v-25l-23-3-22-3-6 15c-3 9-3 23 0 32l6 15 22-3 23-3v-25zm-792 38c2-7 10-13 17-13s15 6 18 13l4 12h-44l5-12zm-3-68v-21l18 3 17 3v30l-17 3-18 3v-21zm140 61v-21h41l-3 17-3 18-18 3-17 3v-20zm223 7c2-7 10-13 17-13s15 6 18 13l4 12h-44l5-12zm-8-58-7-12 10-10 11-11 16 7 17 6-4 13c-3 6-12 13-20 15l-16 3-7-11zm140 60-7-12 10-10 11-11 16 7 17 6-4 13c-3 6-12 13-20 15l-16 3-7-11zm141-15-7-27 6-19 7-20 16 3 17 3v80l-16 3-17 3-6-26z"/></g></g></svg>