<?xml version="1.0" encoding="UTF-8" standalone="yes"?>
<svg version="1.2" viewBox="0 0 300 300" baseProfile="tiny-ps" xmlns="http://www.w3.org/2000/svg">
  <title>bimi-svg-tiny-12-ps</title>
  <path fill="#fefefe" d="M78.5 25c-3.5 1.4-5.9 5-18.4 26.6L48 72.7v7.7l4 6.6c4.4 7.2 7.4 15 8.5 21.7l.7 4.3H39.5l-1.2 2-1.3 1.9-9.7.3-9.7.3-8.9 15.2-8.9 15.2L9 163.4l9.2 15.6h18.7l2.4 2.4 2.3 2.3-.4 9.2-.4 9.2 1.2 6.2 1.2 6.2 3.2 7c6.4 13.6 16.5 24.5 33.6 36l8.5 5.7 14 6.8c15.8 7.7 40 17 46 17.7l4.1.5 8.6-3c24.1-8.5 45.1-18.5 59.8-28.3l9.5-6.3 7.6-7.6 7.6-7.5 3.7-5.8c2.1-3.2 4.9-8.8 6.4-12.5l2.6-6.7.1-13.5v-13.4l2.3-2.3 2.3-2.3h18.7l9.2-15.6 9.1-15.5-8.8-15.2-8.8-15.2-9.8-.3-9.7-.3-1.3-1.9-1.2-2H239l.6-4.3c1.1-6.9 4.2-14.7 8.5-21.7l4.2-6.5.1-3.6.1-3.5-11.4-20c-6.3-10.9-12.4-21.5-13.7-23.6l-2.4-3.7-3.9-1.2-3.9-1.1-9.8 2.5c-5.5 1.4-13.9 3.3-18.9 4.2l-9 1.7-23 .5-23.1.5-13.4-1.7-13.5-1.7-11.3-2.9c-12-3.1-13.5-3.3-16.7-1.9"/>
  <path fill="#dadcd3" d="M78.5 25c-3.5 1.4-5.9 5-18.4 26.6L48 72.7v7.9l3.2 5c4.5 7.1 7.5 14.2 8.8 21.2l1.3 6.2H67v-7.5l-2.8-8-2.8-8-3.7-5.8c-2-3.1-3.7-6.3-3.7-7.1 0-1.4 22.4-41.1 24.8-43.9l1.5-1.7h2.1c1.2 0 6.6 1.1 12.1 2.5 5.5 1.3 15.2 3.2 21.5 4.2l11.5 1.7h45l12-1.8c6.6-1 16.3-2.9 21.5-4.2s10.4-2.4 11.6-2.4h2.1l1.5 1.7c.9 1 6.8 10.9 13.2 22L246 74.9v1.8c0 1-.9 3.1-2.1 4.8-5.7 8.5-10.9 22.1-10.9 28.9v2.6h5.9l.6-3.8c.4-2 1.5-6.4 2.6-9.7l1.9-6 4.1-6.5 4.2-6.5.1-3.6.1-3.5-11.4-20c-6.3-10.9-12.4-21.5-13.7-23.6l-2.4-3.7-3.9-1.2-3.9-1.1-9.8 2.5c-5.5 1.4-13.9 3.3-18.9 4.2l-9 1.7-23 .5-23.1.5-13.4-1.7-13.5-1.7-11.3-2.9c-12-3.1-13.5-3.3-16.7-1.9m-7.2 30.9C65.1 66.7 60 76 60 76.5c0 .4 1.4 3.1 3.1 5.9 4.1 6.6 7.5 15.8 9 24l1.1 6.6 36.2-.2 36.1-.3v-67l-11-.7c-15.1-1.1-30.8-3.4-42.1-6.3-5.2-1.4-9.5-2.5-9.7-2.5-.1.1-5.3 9-11.4 19.9m32.1 17.5-1.7 6.7 1.3 2.5c.8 1.3 1.7 2.4 2.2 2.4h.9l-1.1-1.9c-.5-1.1-1-3.1-1-4.5V76h1c.6 0 1 .4 1 .9s1.1 2.2 2.4 3.8c1.3 1.5 2.6 3.8 3 5.1l.8 2.3-3.8 3.4c-4.5 4.1-5.2 4.3-5.6 1.2l-.3-2.2-2.5-.1c-1.4-.1-2.9-.2-3.4-.3l-.8-.1 1.2-1.5 1.3-1.5 1.5 1.2 1.5 1.3-1.1-2.2c-.7-1.2-1.2-3.7-1.2-5.5v-3.3l2.7-6.1c1.6-3.4 2.9-6.1 3.1-5.9.2.1-.5 3.3-1.4 6.9m-2.9-4.5.5 1-2.1 4.1-2.2 4.1.6 4.2c.2 2.3.3 3.6 0 2.9l-.5-1.2H93v-1c0-.5.8-1.3 1.8-1.9l1.7-1-1.2-2c-.7-1.2-1.3-2.5-1.3-3.1v-1h3.8l.5-1.5.6-1.4-1-.6-.9-.6.5-1c.8-1.2 2.2-1.2 3 0m106.1-30.3c-11.4 3-26.1 5.2-40.9 6l-11.7.7V113h73l.4-2.3c2.2-11.3 3.2-15 5.5-20.2 1.5-3.3 3.9-7.8 5.3-10l2.5-4.1-11.6-20.2L217.5 36l-1 .2c-.5 0-5 1.1-9.9 2.4M195.5 66c.3.5 1.5 1 2.6 1h2.1l2.9 2.9 2.9 2.9v2.4l-.1 2.3-1.3-3.1c-.8-1.7-2.4-3.9-3.7-4.8l-2.3-1.6h-8.8l-3.4 3.4c-1.8 1.8-3.6 3.1-3.9 2.8-1-1-.5-2.1 1.4-2.7l2-.6.6-2 .6-1.9h5.9v-1c0-.6.4-1 .9-1 .6 0 1.3.4 1.6 1m4.6 6.9c1.6 1.6 2.9 3.7 2.9 4.5V79h-18l1.3-3.3 1.3-3.2 2.5-1.2c1.3-.7 3.4-1.3 4.7-1.3h2.4zM39.2 116.7c-1 1.6-5.5 9.2-10.1 16.9l-8.2 14.2 9.8 16.6 9.7 16.6h219.2l9.7-16.6 9.8-16.6-8.2-14.2c-4.6-7.7-9.1-15.3-10.1-16.9l-1.9-2.7H41.1zm40.6 12.5.3 2.8H72v21h-6v-21h-7.1l-.5-1.5c-.4-.8-.3-2.2 0-3l.6-1.6 10.2.3 10.3.3zm7.4 2 .3 5.3h10l.3-5.3.3-5.3 2.7.3 2.7.3.3 13.2.3 13.3h-6l-.3-5.3-.3-5.2h-10l-.3 5.3-.3 5.3-2.7-.3-2.7-.3-.3-11.9c-.1-6.6 0-12.6.2-13.3l.5-1.3h5zm36.8-2.7v2.4l-6.2.3-6.3.3-.3 2.7-.3 2.8H123v5h-12v6h13v5h-19v-12.8c0-7.1.3-13.2.7-13.5.3-.4 4.6-.7 9.5-.7h8.8zm16.2-1.5 3.7 1.1 1.6 2.2 1.5 2.1v5.7l-2.3 2.3-2.4 2.4 2.3 4.3c3 5.7 3 5.9-.6 5.9h-3l-2.5-5-2.5-5h-4v10h-6v-27h5.3c2.8 0 6.9.5 8.9 1m17.4 5.7 3.7 6.6 1.4-1.9c.8-1 2.6-4 3.9-6.7l2.4-4.7h5v27.1l-2.7-.3-2.8-.3-.5-7.5-.5-7.5-1.9 4.2c-2.9 6.6-4.9 6.5-8.4-.2l-2.1-4-.1 7.7v7.8h-6v-27h4.8zm34.4-5.2 1.3 1.5.1 8.9.1 8.9 2.3 3.1 2.3 3.1h-2.8l-1.1-2.5-1.2-2.5h-9.7l-1.1 2.5-1.2 2.5h-2.5c-1.4 0-2.5-.4-2.5-.8 0-.8 6-18.7 7.9-23.5l1.1-2.7h5.8zm-88 35.6v3.9h-2v-4h-4v4h-2v-8h1c.6 0 1 .7 1 1.5v1.5h4v-4.1l1 .6 1 .6zm3.5-1.1c.4 1.7 1 3 1.5 3s1.1-1.3 1.5-3c.4-1.6 1-3.2 1.5-3.5l.9-.6-1.5 4.6c-2.2 6.4-3.3 6-5.9-2.4l-.7-2.4 1 .7c.6.3 1.3 2 1.7 3.6m13 1.2 1.5 3.8h-2l-.7-3c-.3-1.7-1-3.3-1.4-3.6l-.9-.5-.1 1.8c-.1 1-.1 2.1-.1 2.5.1.3-.6 1.2-1.5 1.9l-1.6 1.4.8-2.5c.4-1.4 1.2-3.6 1.7-4.9l.9-2.4.9.9c.5.5 1.6 2.6 2.5 4.6m7.9-4.6c.9.3 1.6 1.1 1.6 1.6v1l-1.5-1.2-1.5-1.2-1.5 1.2-1.6 1.3.3 2.1.3 2.1 2.9-.2 2.9-.2-1 1-1.1 1.1-2.3-.4-2.4-.3-.3-2.8-.3-2.8 1.2-1.5c1.3-1.6 2-1.7 4.3-.8m11.1.5.7 1-1.7-.3-1.8-.3-.4 1.2-.4 1.2 2.6.7 2.6.6-.3 1.7-.3 1.6-2.4.3-2.3.4-1.2-1.2-1.1-1.1 2.6.6 2.7.7.6-1 .6-1-3-1.1c-3.2-1.1-3.7-2-1.8-3.9 1.5-1.5 3.5-1.5 4.3-.1m8.6-.1 1.9 1.1v1.9c0 1-.3 2.5-.6 3.4l-.6 1.6h-4.7l-1.1-1.9c-1.4-2.7-1.3-3.7.6-5.5 1.8-1.9 2-1.9 4.5-.6m7.7 7.3 2.7.4-3.2.2-3.3.1.2-4.8.1-4.7.4 4.2.4 4.2zm6.7-.8h2l.6-4 .7-4-.2 4.5-.1 4.5h-6l-.1-4.5-.2-4.5.7 4 .6 4zM174 159c0 .5-.4 1-1 1h-1v7h-2v-7h-1c-.5 0-1-.5-1-1v-1h6zm2.7 5.7-.4 2.8v-10l.4 2.2c.2 1.3.2 3.5 0 5m8.8-5.1 1.6 1.6-.3 2.1c-.2 1.1-1.1 2.5-2 3.1l-1.8 1.1-1.7-1.1c-1-.6-1.9-2-2.1-3.1l-.3-2.1 1.6-1.6c.9-.9 2-1.6 2.5-1.6s1.6.7 2.5 1.6m9.5 3.1-.1 4.8-2.4-2.9-2.3-2.9-.5 2.9-.4 2.9-.1-4.5-.1-4.5 2.4 3 2.5 3v-3.3c0-1.7.2-3.2.5-3.2s.5 2.1.5 4.7m7.5-3.6.7 1-1.7-.3-1.8-.3-.4 1.2-.4 1.2 2.6.7 2.6.6-.3 1.7-.3 1.6-2.4.3-2.3.4-1.1-1.1-1.1-1.1 3.2.6 3.2.6v-1c0-.5-1.3-1.5-3-2.1-3.2-1.1-3.7-2-1.8-3.9 1.5-1.5 3.5-1.5 4.3-.1M132 135v4h5.9l1.5-1.6c1.9-1.8 1.9-2 .6-4.5l-1.1-1.9H132zm55.1.3c-.6 1.5-1.4 3.9-1.7 5.2l-.6 2.5h7.3l-.7-2.3c-.3-1.2-1.2-3.6-1.9-5.2l-1.3-3zm-42.4 24.3c-.4.4-.7 2-.7 3.6v2.8h4.1l-.3-3.2-.3-3.1-1.1-.4c-.5-.2-1.3 0-1.7.3m37 0c-.4.4-.7 2-.7 3.6v2.8h4.1l-.3-3.2-.3-3.1-1.1-.4c-.5-.2-1.3 0-1.7.3M11.2 131.7c-4.5 7.6-8.3 14.5-8.6 15.3l-.5 1.5 8.2 14 8.3 14 8.7.3c4.8.1 8.7 0 8.7-.3 0-.4-3.1-5.9-7-12.4-3.8-6.5-7.4-13-8.1-14.4l-1.1-2.5 8.1-13.7c4.5-7.5 8.1-14.1 8.1-14.6v-.9H19.2zm253.2-12c.4 1 4.1 7.6 8.3 14.7l7.5 12.9-1.1 2.5c-.7 1.3-4.3 7.8-8.1 14.3-3.9 6.5-7 12-7 12.4 0 .3 3.9.4 8.7.3l8.7-.3 8.3-14c4.5-7.7 8.3-14.3 8.3-14.6 0-.4-3.9-7.2-8.6-15.3l-8.6-14.6h-17zm-222.8 66c-.3 2.1-.6 7-.6 11 0 23.5 12.5 43 39 60.8l8.5 5.7 14 6.8c15.8 7.7 40 17 46 17.7l4.1.5 8.6-3c24.1-8.5 45.1-18.5 59.8-28.3l9.5-6.3 7.6-7.6 7.6-7.5 3.7-5.8c2.1-3.2 4.9-8.8 6.3-12.5l2.6-6.7.5-9.6c.2-5.4.1-11.8-.2-14.3l-.7-4.6H252l.6 9.7.7 9.8-1.7 6.5c-2.3 8.9-5.4 15.3-11.1 22.8l-4.8 6.3-7.1 6c-14.5 12.3-36.8 24-65.3 34.4l-13.2 4.8-11.8-4.3c-42.9-15.6-68.7-31.9-81.9-51.7l-3.7-5.6-2.5-7.1-2.6-7.1V197c0-5.2.3-10.7.7-12.3l.7-2.7h-6.7zm11.8 1.9c-.3 3.1-.4 9.1-.1 13.3l.5 7.6L56 214c9.1 23 37.4 42.5 87.3 60.1l6.7 2.4 6.8-2.4c32.4-11.2 57-24.3 71.4-37.9l6.8-6.4 4-6 4-6 2.1-6.7 2-6.6v-7.6c.1-4.1-.3-9.2-.6-11.2l-.7-3.7H54.1zm32.4 12.6c.7.7 1.2 2.1 1.2 3.2v2l-3.2 3.3-3.2 3.3H88v2H76v-.9c0-.5 1.8-2.5 4-4.4l4-3.4v-1.6c0-.9-.5-1.9-1.1-2.2l-1-.7-1.9 1.7c-1 .9-2.4 1.5-3 1.3l-1-.3 1.5-2.3 1.6-2.2h5.5zm14.2.3 1.2 1.5-.5 2.1-.6 2.1 1.2 1.9 1.2 1.9-1.1 1.8-1.1 1.7h-8.6l-1.1-1.7-1.1-1.8 1.2-1.8 1.1-1.9-.9-1.4c-1.2-1.9-1.1-2.5.7-4.3l1.5-1.6h5.7zm14.2.2c2.5 2.3 2.3 4.3-1.3 9.1l-3.1 4.2h-2.9l1.5-2.2 1.6-2.2-3-1.2-3-1.3v-5l1.6-1.5 1.5-1.6h5.2zm21.8-.2 1.2 1.5-.5 2.1-.6 2.1 1.2 1.9 1.2 1.9-1.1 1.8-1.1 1.7h-8.6l-1.1-1.7-1.1-1.8 1.2-1.8 1.1-1.9-.9-1.4c-1.2-1.9-1.1-2.5.7-4.3l1.5-1.6h5.7zm14 .5c2.6 2.6 2.6 2.7-1 8.3l-3 4.7h-3.2l1.6-2.5 1.6-2.5h-1.8c-1 0-2.3-.5-3-1.2l-1.2-1.2v-5.5l1.8-1c.9-.6 2.7-1.1 4-1.1h2.2zm13.3-.7 1.7 1.2.7 3.7.6 3.8-1.7 2.5-1.6 2.5h-6.6l-1.2-1.2-1.2-1.2v-9.5l1.6-1.5 1.5-1.6h2.3c1.2 0 3 .6 3.9 1.3m22.5-.1c.7.7 1.2 2.1 1.2 3.2v2l-3.2 3.3-3.2 3.3h6.4v2h-11v-.7c0-.4 1.9-2.6 4.1-4.9l4.2-4.3-.6-1.5-.6-1.6h-3.2l-.5 1.5c-.4.8-1.2 1.5-2 1.5-1.8 0-1.8-.9.3-3.2l1.6-1.8h5.3zm13.6.4c2.3 2.3 2 3.9-1.4 7.1-1.6 1.5-3 3.1-3 3.5 0 .5 1.4.8 3 .8h3v2h-11v-1.3c0-.8 1.8-2.8 4-4.6l4-3.2v-3l-1.6-.6-1.7-.6-1.2 1.6c-.7 1-1.7 1.7-2.4 1.7H190v-1.5c0-1.7 2.7-3.4 5.7-3.5h2.2zm13.4-.4c.7.7 1.2 2.1 1.2 3.2v2l-3.2 3.3-3.2 3.3h7.4v2h-12v-1c0-.5 1.8-2.4 4-4.1l4-3.2v-1.8c0-1-.5-2.1-1.1-2.4l-1-.7-1.8 1.6c-2.1 1.9-3.1 2-3.1.3 0-3.3 6.2-5.1 8.8-2.5m14 0c.7.7 1.2 2 1.2 3v1.7l-3.1 3.6-3.1 3.5h6.2v2h-11v-.7c0-.4 1.9-2.6 4.1-4.9l4.2-4.3-.6-1.5-.6-1.6h-3.2l-.5 1.5c-.4.8-1.2 1.5-2 1.5-1.8 0-1.8-.9.3-3.2l1.6-1.8h5.3zm-104.1 6.4.6 1.6-1.4.9-1.4.8-1.4-1.3-1.3-1.4.6-1.1c.4-.6 1.4-1.1 2.2-1.1h1.5zm49.8.9v2h-3l-.3-2.3-.4-2.4 1.9.4 1.8.3zm-79.2-5-.6 1.7 1.4.8 1.3.9 1.9-1 1.8-1-.4-1.2c-.2-.7-1.3-1.3-2.5-1.5l-2.2-.3zm1 5.2-1.3.5v3.6l1.5.6c.8.3 2.2.3 3 0l1.5-.6v-3.6l-1.6-.6c-.9-.3-1.6-.6-1.7-.5-.1 0-.8.3-1.4.6m13.1-5.2c-.4.8-.4 2.2 0 3l.5 1.5h4.2l.5-1.5.6-1.5-1.2-1.5c-1.6-1.9-3.9-1.9-4.6 0m21.9 0-.6 1.7 1.4.8 1.3.9 1.9-1 1.8-1-.4-1.2c-.2-.7-1.3-1.3-2.5-1.5l-2.2-.3zm.9 5.4-1.4.8.4 1.9.3 1.9 1.5.2c.8.2 2.2-.1 3-.7l1.5-.9-1.1-1.8c-1.3-2.1-2.5-2.5-4.2-1.4m13.2-5.4c-.4.8-.4 2.2 0 3l.5 1.5h3.9l.6-1.6.6-1.7-1.1-1.3c-1.5-1.8-3.8-1.8-4.5.1m14-.1c-.3.8-.4 3.1-.2 5.2l.3 3.9 1.9.3 1.9.4.8-1.4c.5-.7.9-2.7.9-4.4v-3l-1.2-1.2c-1.6-1.6-3.7-1.5-4.4.2"/>
  <path fill="#abae9f" d="M78.5 25c-3.5 1.4-5.9 5-18.4 26.6L48 72.7v7.9l3.2 5c4.5 7.1 7.5 14.2 8.8 21.2l1.3 6.2h6l-.7-4.9c-.9-7.2-4.1-15.6-8.7-23.4l-4.1-6.9.4-2.1c.2-1.2 5.9-11.7 12.7-23.4l12.2-21.2 1.8-.6 1.8-.5 9.4 2.5c11.7 3.1 32.6 6.1 48.4 7l12 .6 14-1.1c15.4-1.1 33.1-4 44.3-7.1l7.3-2 2 1.3 1.9 1.3 12 20.8 12 20.9v5l-1.9 2.6c-5.2 7.5-11 22.8-11.1 29.4v1.8h5.9l.6-3.8c.4-2 1.5-6.4 2.6-9.7l1.9-6 4.1-6.5 4.2-6.5.1-3.6.1-3.5-11.4-20c-6.3-10.9-12.4-21.5-13.7-23.6l-2.4-3.7-3.9-1.2-3.9-1.1-9.8 2.5c-5.5 1.4-13.9 3.3-18.9 4.2l-9 1.7-23 .5-23.1.5-13.4-1.7-13.5-1.7-11.3-2.9c-12-3.1-13.5-3.3-16.7-1.9m4.1 11.8c-.2.4-5.4 9.4-11.6 20.1L59.8 76.4l1.6 2.5c1 1.4 3.3 5.8 5.3 9.8l3.5 7.2 1.6 8.6 1.7 8.5H145V45.3l-12.2-.6-12.3-.6-12-2.1c-6.6-1.1-15-2.9-18.7-3.9L83 36.2zm20.9 37.1-1.6 6.1 1.1 2c1.5 2.8 1.6 2.6 1.2-2l-.4-4h.8c.5 0 2.4 2.3 4.3 5l3.3 5-.6 2.4-.6 2.4-3.6 2.1c-1.9 1.2-3.9 2.1-4.4 2.1h-1l.3-2.3.2-2.2-2.7.3-2.6.3-.7-1.1-.7-1.1 1.3-1.5 1.2-1.5.9 1.3.9 1.3-.7-2.5c-1.2-4.2-.7-7.6 2-13.3 1.4-2.9 2.7-6 2.7-6.8l.1-1.4.5 1.6c.2 1-.3 4.4-1.2 7.8m-2.3-5.4c.3.3-.6 2.7-1.9 5.3l-2.4 4.7.5 3.6.6 3.6-2.5-.5-2.5-.4v-1.4c0-.8.7-1.7 1.5-2 .8-.4 1.5-1.3 1.5-2 0-.8-.7-1.7-1.5-2-2.3-.9-1.8-2.3 1.1-3.4l2.5-1-.2-1.7c-.1-1-.1-2.1 0-2.6.1-.8 2.5-1 3.3-.2M210 38.2c-3.5 1-12 2.7-18.9 3.9l-12.4 2.1-12.1.6-12.1.7v67l36.1.3 36.2.2.7-4.7c.4-2.5 1.6-7.6 2.7-11.2l2-6.6 3.9-6.7c2.1-3.6 3.9-7 3.9-7.4 0-1-22.1-39.4-22.9-39.7-.3-.2-3.5.5-7.1 1.5m-10.7 28.4 2.6-.6.3 2.2.3 2.3 2.3.3 2.4.4-.6 1.5c-.3.8-.6 2.4-.6 3.6l-.1 2.2-1.3-3.1c-.8-1.7-2.6-4-4.1-5.2l-2.8-2.2h-7.3l-2.2 1.6c-1.2.8-3.1 3.2-4.3 5.2l-2 3.7.4-2.1c.2-1.2 0-2.9-.5-3.8l-.9-1.6h4.1l1.1-2.3 1.1-2.4 2.2.4 2.2.5 1.3-1.6 1.4-1.6 1.2 1.6 1.2 1.7zm1.1 6 2.6 2.7V79h-18v-1.6c0-.8 1.3-2.9 2.9-4.5l2.9-2.9h6.9zM31 131.2c-5.2 8.9-9.5 16.4-9.5 16.6.1.2 4.3 7.8 9.5 16.8l9.5 16.4h219l9.5-16.4c5.2-9 9.3-16.8 9.2-17.2-.1-.5-4.3-8-9.4-16.7l-9.2-15.7H40.4zm49-2.3v3l-3.7.3-3.6.3-.1 10-.1 10-3.2.3-3.3.3V132h-8v-6h22zm7.8 2.8.3 5.3h8.8l.3-5.3.3-5.2 3.3-.3 3.2-.3V153h-7v-10h-9v10h-7v-27.1l3.3.3 3.2.3zM124 129v3h-13v4.9l6.3.3 6.2.3.3 2.2.3 2.2-6.3.3-6.3.3v5l6.8.3 6.7.3v4.9h-20v-27h19zm20.4-.1 2.6 2.4v6.4l-2.1 2.7-2.1 2.7 2.6 5 2.7 4.9H141l-2.2-4.5-2.2-4.5H132v9h-6v-27.2l7.9.3 7.9.4zm13.2 3.4c1.7 3.2 3.5 5.9 3.9 5.9s2.2-2.7 3.9-5.9l3.1-5.8 2.8-.3 2.7-.3V153h-6v-7.3l-.1-7.2-2.5 4.2-2.6 4.3h-2.6l-2.6-4.3-2.5-4.2-.1 7.2v7.3h-6v-27.1l2.8.3 2.7.3zm35.4-3.7 1 2.5v17l2.5 2.4 2.4 2.5h-3.6l-1.1-2.6-1.2-2.5-4.8.3-4.7.3-1 2.2-1 2.3h-6.4l3.5-10.3c2-5.6 4.2-11.7 4.9-13.5l1.4-3.2h7.1zM98 160v2h4v-4h2v9h-1c-.5 0-1-.7-1-1.5V164h-4v1.5c0 .8-.4 1.5-1 1.5h-1v-9h2zm9.5 1c.4 1.6 1 3 1.5 3s1.1-1.4 1.5-3l.7-3h1.9l-.7 2.2c-1.5 5.1-2.4 6.8-3.4 6.8s-1.9-1.7-3.4-6.8l-.7-2.2h1.9zm12.3-.3c.5 1.6 1.3 3.5 1.6 4.3l.7 1.6-4.1-.1h-4v-.8c0-1.7 3-7.7 3.9-7.7.5 0 1.4 1.2 1.9 2.7m10-.9.4 1.3-2.6-.7-2.6-.6v6.2h1.3c.7 0 1.8-.5 2.5-1.2l1.2-1.2v3.2l-1.9.5-1.8.4-1.7-.9-1.6-.9v-6.7l1.3-.6c.6-.2 2.1-.4 3.1-.3l1.9.2zm9.6-1.2c.9.3 1.6 1 1.6 1.5v.9l-2.5-.6-2.5-.6v1c0 .5 1.1 1.3 2.5 1.6l2.5.6v3.8l-1.7.4c-2.4.6-5.3-.1-5.3-1.3v-.9l2.5.6 2.5.6v-.9c0-.6-1.1-1.5-2.5-2.1L134 162v-1.4c0-2.1 2.6-3.1 5.4-2m9.4.6 1.2 1.2v5.5l-1.9 1.1c-2.5 1.3-2.7 1.3-4.5-.6l-1.6-1.5v-2.3c0-2.6 1.7-4.6 4-4.6.9 0 2.1.5 2.8 1.2m7 7.1 2.7.4-3.2.2-3.3.1.2-4.8.1-4.7.4 4.2.4 4.2zm5.2-4.3v4h3l.4-2.3c.3-1.2.7-3.1.9-4.2l.5-2 .1 4.2.1 4.2-1.7 1-1.7.9-1.8-.9-1.8-1V158h2zm14-3c0 .5-.7 1-1.5 1H172v7h-2v-7h-1.5c-.8 0-1.5-.5-1.5-1v-1h8zm3 3.5v4.5h-2v-9h2zm7.8-3.3 1.2 1.2v5.5l-2 1.1-2 1.1-2-1.1-2-1.1v-5.5l1.2-1.2c.7-.7 1.9-1.2 2.8-1.2s2.1.5 2.8 1.2m5.9 1.5 2.2 2.8.1-2.8v-2.8l1 .6 1 .6v7.9h-1.3c-.7 0-2-1.2-2.9-2.8l-1.7-2.7-.1 2.7v2.8h-2v-4.5c0-2.5.3-4.5.7-4.5s1.7 1.2 3 2.7m10.7-2.1c.9.3 1.6 1 1.6 1.5v.9l-2.5-.6-2.5-.6v.6c0 .4 1.1 1.1 2.5 1.6l2.5 1v3.8l-1.7.4c-2.4.6-5.3-.1-5.3-1.3v-.9l2.5.6 2.5.6v-.9c0-.6-1.1-1.5-2.5-2.1L197 162v-1.4c0-2.1 2.6-3.1 5.4-2m-70.4-24v3.5l3.8-.3 3.7-.3.3-2.4.4-2.4-1.4-.8c-.7-.5-2.5-.9-4-.9H132zm54.5 2.7c-1 2.6-1.5 5-1.2 5.3s1.8.4 3.4.2l3-.3-1.7-5-1.7-5zm-69.9 25.2-.5 1.5h1.4c1.6 0 2-1.6.6-2.4l-.9-.6zm27.8-1c-.4.8-.4 2.2 0 3l.5 1.5h3.1v-6h-3.1zm36.8 1.2.3 2.8h3l.3-2.8.3-2.7h-4.2zM17.6 121.2c-5.4 8.8-14.9 25.5-14.9 26.4 0 .6 3.7 7.5 8.2 15.3l8.3 14.1h16.9l-3.2-5.8c-1.8-3.1-5.7-9.7-8.5-14.6l-5.2-8.8 6.5-11.2c3.6-6.1 7.4-12.6 8.5-14.4l2-3.2H19zm248.2 1c1.1 1.8 4.1 6.9 6.7 11.3s5.5 9.4 6.6 11.1l1.9 3.1-5.3 8.9c-2.9 4.9-6.8 11.5-8.6 14.6l-3.2 5.8h16.9l7.5-12.8c4.1-7 7.9-13.6 8.4-14.7l1.1-2-8.2-14-8.2-14-8.8-.3-8.8-.3zM41.6 186.1c-.3 1.7-.6 6.4-.6 10.5 0 23.6 12.4 43 39 60.9l8.5 5.7 14 6.8c15.8 7.7 40 17 46 17.7l4.1.5 8.6-3c24.1-8.5 45.1-18.5 59.8-28.3l9.5-6.3 7.6-7.6 7.6-7.5 3.7-5.8c2.1-3.2 4.9-8.8 6.3-12.5l2.6-6.7.5-10.2c.2-5.6.2-11.7-.2-13.7l-.7-3.6h-5.4v24.5l-1.9 5.5c-1 3-3.8 8.7-6.2 12.6l-4.4 7.1-7.6 7.2-7.6 7.3-8.3 5.4c-4.6 3-14.8 8.6-22.7 12.4-14.6 7-40.3 17-43.8 17-3.4 0-28.9-9.9-43.9-17.1L91.7 258l-8.6-5.7-8.6-5.7L66 238l-8.6-8.5-3.7-7.1-3.7-7.1-1.6-6.9-1.6-6.9.6-9.3.5-9.2h-5.6zm12 .6c-.3 2.1-.6 6.8-.6 10.4v6.7l2 6.4 2 6.4 4.1 6.5 4.2 6.4 6 5.8c3.3 3.2 10.4 8.7 15.7 12.3l9.6 6.4 12.5 5.9c6.8 3.2 18.6 8.2 26.3 11.1l13.9 5.2 2.6-.7c6-1.5 32.4-12.2 42.6-17.2 6.1-3 14.8-8 19.5-11.1l8.5-5.6 7.7-7.7 7.6-7.8 4.3-8.6 4.3-8.6.4-8.4c.2-4.6.1-10.4-.2-12.9l-.7-4.6H54.3zm32.8 13.9c.9.8 1.6 1.8 1.6 2 0 1.3-2.5 5-4.2 6.2-1 .7-1.8 1.7-1.8 2.3v.9h6v3H76v-1.3c0-.7 1.8-3.1 4-5.2 4.1-4 4.9-5.9 2.9-7l-1-.7-1.8 1.6c-3.4 3-5.7 1.3-2.5-1.8l1.5-1.6h5.8zm14.6.4 1.1 2-1 1.8-1 1.9 1 1 1.1 1.1-.4 2.3-.3 2.3-3.3 1-3.2.9-2.5-1.1L90 213l.2-5.2c.1-2.9.5-6.1 1-7.1l.9-1.7h7.8zm13.4-.4c2.3 2.2 2 4.1-1.5 9.6l-3.1 4.8h-3l.7-1.8c.4-.9.9-2.2 1.1-2.7l.4-1-2.2-1-2.3-1-.3-2.8-.3-2.8 1.2-1.5 1.1-1.4h6.7zm21.4-.7 1.4.8-.3 2.9c-.1 1.6.2 3.7.6 4.8l.8 1.9-1 1.6c-.6.9-2.2 2-3.6 2.5l-2.6 1-2.5-1.2-2.5-1.1.1-5.8.1-5.8 1-1.3.9-1.2h3.2c1.7 0 3.7.4 4.4.9m14.7 1.1 1.7 1.9-.5 2.4c-.4 1.2-2.2 4.1-4.1 6.2l-3.4 4-.8-.8-.8-.8 1.3-2c.7-1.2 1.1-2.2.9-2.2-.2-.1-1.2-.7-2.3-1.3l-2-1.1-.3-2.7-.3-2.7 1.2-1.5 1.1-1.4h6.5zm13.9.2 1.6 2.2v7.6l-2 2c-2.4 2.4-4.8 2.5-7.8.4l-2.2-1.5v-10.5l1.2-1.2 1.2-1.2h6.5zm21.4-1c.7.7 1.2 2.2 1.2 3.3v2.2l-2.5 2.3c-1.4 1.3-2.5 2.7-2.5 3.2v.8h6.2l-.4 1.2-.5 1.3-5.6.3-5.7.3v-3.8l4-3.2 4-3.2v-1.4c0-.8-.5-1.7-1.1-2l-1-.7-1.8 1.6c-3.2 2.9-5.9.8-2.9-2.2l1.2-1.2h6.2zm14 0c.7.7 1.2 2.1 1.2 3.2v2l-3.2 3.3-3.2 3.3h6.4v3h-10.9l-.7-1.2-.7-1.2 4.1-3.7 4.2-3.7v-1.5c0-.9-.5-1.9-1.2-2.3l-1.1-.7-1.2 1.6c-.7 1-1.7 1.7-2.4 1.7-1.5 0-1.4-2.3.1-3.8l1.2-1.2h6.2zm13.6.4c2.3 2.3 2 3.9-1.4 7.1-1.6 1.5-3 3.1-3 3.5 0 .5 1.4.8 3 .8h3v3h-12v-1.3c0-.7 1.8-3.1 4-5.2 4.1-4 4.9-5.9 2.8-7.1l-1.1-.7-1.2 1.6c-1.2 1.7-4.5 2.4-4.5 1 0-.3.7-1.5 1.7-2.5l1.6-1.8h5.6zm13.4-.4c.7.7 1.2 2.2 1.2 3.3v2.2l-2.5 2.3c-1.4 1.3-2.5 2.7-2.5 3.2v.8h6.2l-.4 1.2-.5 1.3-5.6.3-5.7.3v-3.9l4-3.2 4-3.2v-1.3c0-.8-.5-1.7-1.1-2l-1-.7-1.8 1.6c-3.2 2.9-5.9.8-2.9-2.2l1.2-1.2h6.2zm-104 7.1.3 1.7-1.6.6-1.6.7-1.1-1.1-1.1-1.1.7-1.6.6-1.6 1.7.3 1.8.3zm50.2-.4c0 1.1-.5 2.3-1.1 2.7l-1.1.6-1.5-1.5-1.5-1.5.6-1.1c.4-.6 1.6-1.1 2.7-1.1h1.9zM93.5 202c-.9 1.5.3 3 2.4 3 2.3 0 3.1-.9 2.4-2.6l-.5-1.4H96c-1.1 0-2.2.4-2.5 1m-.5 8v2.1l2.8-.3 2.7-.3v-3l-2.7-.3-2.8-.3zm15-7.5-1.2 1.5.6 1.5c.7 1.9 3 1.9 4.6 0l1.2-1.5-1.2-1.5c-1.6-1.9-2.4-1.9-4 0m21.5-.6c-.9 1.6.3 3.1 2.6 3.1h2l-.3-1.7-.3-1.8-1.7-.3-1.6-.3zm-.5 8.1v2.1l2.8-.3 2.7-.3v-3l-2.7-.3-2.8-.3zm15.1-8-1.3.7.4 1.9.3 1.9h4l.3-2.1.3-2.1-1.4-.6c-.8-.3-1.9-.2-2.6.3m14 .4-1.2 1.5.3 3.8.3 3.8h4v-9.8l-1.1-.4c-.6-.2-1.6.3-2.3 1.1"/>
  <path fill="#839640" d="M78.5 25c-3.5 1.4-5.9 5-18.4 26.6L48 72.7v7.9l3.2 5c4.5 7.1 7.5 14.2 8.8 21.2l1.3 6.2h5.9l-.7-4.3c-1.3-8.5-4.5-16.4-11.4-28.6l-2-3.3.9-2.2c.4-1.1 6.1-11.3 12.6-22.5l11.9-20.4 1.7-1.1 1.7-1 10.8 2.7c5.9 1.5 15.3 3.5 20.8 4.4l10 1.7 26 .1h26l11-1.8c6.1-1 15.2-2.9 20.3-4.3 11.2-2.9 12.4-2.9 14.5-.7 2 2.3 25.7 43.4 25.7 44.7 0 .5-2 4.3-4.4 8.5-4.7 8.1-8 16.9-8.9 23.8l-.5 4.3h5.7l.6-3.8c.4-2 1.5-6.4 2.6-9.7l1.9-6 4.1-6.5 4.2-6.5.1-3.6.1-3.5-11.4-20c-6.3-10.9-12.4-21.5-13.7-23.6l-2.4-3.7-3.9-1.2-3.9-1.1-9.8 2.5c-5.5 1.4-13.9 3.3-18.9 4.2l-9 1.7-23 .5-23.1.5-13.4-1.7-13.5-1.7-11.3-2.9c-12-3.1-13.5-3.3-16.7-1.9m3.1 14.2c-.8 1.3-6 10.2-11.5 19.8l-9.9 17.4 2.5 4.1c5.7 9.3 10.3 22.2 10.3 29.2v3.3h72V46.2l-8.7-.7c-13.7-.9-36.1-4.3-44-6.5-9-2.5-8.9-2.5-10.7.2M104 73.3c-.6 2.2-.9 4.2-.6 4.5s.6-.2.6-1.1c0-1 .5-1.7 1-1.7.6 0 1 .4 1 .9 0 .4 1.4 2.5 3 4.6l3 3.8v5l-1.7 1.9c-.9 1-2.2 1.8-2.8 1.8-.7 0-1.5.7-1.9 1.5l-.5 1.5-1.5-.6-1.5-.6-.3-2.1-.3-2.2-1.3.2c-.6.2-1.8.4-2.4.5l-1.3.3.3-3.3.2-3.2h-4v-1.6c0-.9.8-2.3 1.8-3l1.7-1.3-1.9-1.4-1.9-1.4.5-1.4.5-1.4h3.8l-.3-2.7-.3-2.6 1.1-.7 1.1-.7 1.4 1.2 1.4 1.2-1.9 3.9c-1.1 2.1-2 4.4-2 5.1.1 1.8 5.9-11.3 6.1-13.7l.2-2 .4 3.5.5 3.5zm101.4-33.8c-10.2 2.6-27.4 5.1-41.1 6.1l-9.3.6V113h72v-2.8c0-6.7 5.9-22.5 11.5-31.2l1.6-2.5-11.3-19.7L217.5 37l-1.5.1c-.8.1-5.6 1.1-10.6 2.4m-5.5 26.7L202 65v1.8c0 2.3 1.9 4.2 4.3 4.2h1.9l-1.2 1.5-1.2 1.4.7 2.1.6 2h-1c-.6 0-1.3-1.1-1.7-2.4-.3-1.3-1.6-3.4-2.8-4.5l-2.3-2.2-3.5-.5-3.5-.6-3 1.6-3 1.5-1.8 3.6c-1.9 4.2-2 4.2-2.8-.2l-.6-3.2 2.2-.3 2.2-.3.3-2.7.3-2.7 2.6 1.2 2.6 1.2 1.5-2.3 1.4-2.2 1.8 2.3 1.9 2.2zm1 6.2c.5.6 1.4 2.4 2 3.9L204 79h-19v-1.8c0-.9.8-2.7 1.8-4l1.7-2.3 3-.8 3-.8 2.7.9c1.5.5 3.1 1.5 3.7 2.2M31.2 131.2l-9.4 16.1 1.1 2.4c.6 1.3 5 8.9 9.7 16.9l8.5 14.4h217.8l8.5-14.4c4.7-8 9.1-15.6 9.7-16.9l1.1-2.4-9.4-16.1-9.3-16.1h-219zm56.8-.1v4.9h9v-10h7.1l-.3 13.7-.3 13.8h-6l-.3-5.3-.3-5.2h-8.8l-.3 5.2-.3 5.3h-6l-.3-11-.3-11-3.9.3-3.9.4-.3 10.7-.3 10.6-3.2.3-3.2.3-.3-10.8-.3-10.8-3.7-.3-3.8-.3V126l15 .1h15zm54.9-3.6c3.2 1.6 4.1 3.3 4.1 7.8v3.1l-2.1 2.2-2 2.2 2.3 4.3 2.3 4.4.3-12.8.3-12.7h6.4l3.3 6c1.9 3.3 3.5 6 3.7 6s1.9-2.7 3.7-6l3.3-6h6.5l.1 12.7v12.8l4.6-12.8 4.5-12.7h7.7l1.2 2.2 1.1 2.1-.1 8.4-.2 8.4 3.1 3c3.6 3.6 3.7 4.1.8 3.7l-2.3-.3-1-2.3-1-2.2h-10.2l-1.1 2.4-1.1 2.5-6.3-.2-6.3-.2-.5-7.5-.5-7.5-1.9 4.3-1.9 4.2h-4.4l-1.9-4.2-1.9-4.3-.5 7.5-.5 7.5-6 .2c-3.4.1-6.6-.1-7.2-.5-.5-.4-2-2.6-3.2-5L136 144h-4v9.8l-13.2-.1-13.3-.2-.3-13.8-.3-13.7h35.2zM98 160v2h3.2l.5-2c.3-1.1.9-2 1.4-2h.9v10h-2v-4h-4v4h-2v-10h2zm9.6.5c.3 1.4 1 2.5 1.4 2.5s1.1-1.1 1.4-2.5l.6-2.5h2.2l-.6 2.5c-2.5 9.8-4.7 9.8-7.2 0l-.6-2.5h2.2zm12.9 1.1c.8 2 1.5 4.3 1.5 5v1.4l-2-1.2-2-1.3-1.9 1.2c-2.8 1.7-3.1.6-1.3-4.3l1.6-4.4h2.6zm9.5-2.1 1.3 1.5-.7.7-.6.7-1.2-1.2c-.7-.7-1.8-1.2-2.5-1.2H125v4.9l1.2.7 1.2.8.4-1.2c.4-1.4 3.2-1.6 3.2-.2 0 .5-.9 1.4-2 2l-2.1 1.1-1.8-.6-1.9-.6-.6-2.5-.6-2.4 1-2 1.1-2h4.7zm10.8.3.4 1.3-2.6-.7c-3.5-.8-3.3.1.4 2l3 1.4V162c0-.9.7-2.3 1.4-3l1.5-1.2 2.3.4 2.3.3v7.8l-1.7 1.1-1.8 1.1-2-1.3-2-1.2-2.1 1-2 1.1-1.9-.6c-1.1-.4-2-1.1-2-1.7v-1l2.5.6 2.5.6v-.9c0-.5-1.1-1.2-2.5-1.5l-2.5-.6v-1.9c0-2.5 1-3.2 3.9-2.9l2.4.3zM154 162v4h4v2.1l-3.2-.3-3.3-.3-.3-4.8-.3-4.7h3.1zm7.2-.3.3 3.8h2l.3-3.8.3-3.7h14l-.3 4.7-.3 4.8h-2l-.3-3.8-.3-3.7H172v8h-2v-8h-3v4.9l-1.6 1.5c-.8.9-2.2 1.6-2.9 1.6s-2.1-.7-2.9-1.6l-1.6-1.5v-2.8c0-5.4 2.7-5.7 3.2-.4m24.7-2.3 1.2 1.5-.3 2.7-.3 2.7-1.7 1.1-1.8 1.1-1.7-1.1-1.8-1.1-.3-2.7c-.2-1.5-.1-3.4.2-4.2l.5-1.4h4.9zm6 1.3 2 2.8.1-2.8V158h2v8.9l-.9.5-.9.6-2.1-2.7-2-2.8-.1 2.8v2.8l-1-.6-1-.6V158h.9c.5 0 1.9 1.2 3 2.7m11.9-.9.4 1.3-2.9-.7-2.8-.7.7.8c.4.4 1.7 1.3 3 1.9 1.2.6 2.3 1.6 2.5 2.3l.4 1.2-2.1 1.1-2.1 1.1-1.9-.6c-1.1-.4-2-1.1-2-1.7v-1l2.5.6 2.5.6v-.9c0-.5-1.1-1.2-2.5-1.5l-2.5-.6v-1.9c0-2.5 1-3.2 3.9-2.9l2.4.3zm-85.5-28.1-6.3.4v4.9h12.1l-.3 2.7-.3 2.8-5.7.3-5.8.3v4.9h13v-8.5c0-4.7-.1-8.4-.2-8.3-.2.1-3.1.3-6.5.5M132 135v3.1l3.8-.3 3.7-.3v-5l-3.7-.3-3.8-.3zm55.2 1c-.5 1.4-1.2 3.5-1.6 4.7l-.7 2.3h6.1l-.1-1.3c0-.6-.6-2.8-1.4-4.7l-1.3-3.5zM117 162.5c0 .8.4 1.5 1 1.5h.9l-.5-1.5c-.4-.8-.8-1.5-1-1.5s-.4.7-.4 1.5m27.5-1.5-.6 1 .6 2.1.7 2 1.1-.4 1.2-.4v-4.6l-1.2-.4c-.6-.2-1.4.1-1.8.7m36.9.4c-.3.9-.3 2.3 0 3.2l.6 1.6 1.3-.5 1.2-.4v-4.6l-1.2-.4-1.3-.5zM11 133.1c-4.5 7.7-8 14.6-7.8 15.2.2.7 3.9 7.4 8.3 15l7.9 13.7h15.8l-.6-1.8c-.4-.9-4.1-7.5-8.2-14.5l-7.5-12.8 8-13.9c4.5-7.6 8.1-14.1 8.1-14.4 0-.4-3.6-.6-7.9-.6h-7.9zm254-13.5c0 .4 3.1 5.9 6.9 12.3 3.7 6.4 7.3 12.6 8 13.8l1.2 2.3-7.5 12.7c-4.1 7.1-7.8 13.6-8.2 14.5l-.6 1.8h15.8l7.9-13.7c4.4-7.6 8.1-14.3 8.3-15 .2-.6-3.3-7.5-7.8-15.2l-8.2-14.1h-7.9c-4.3 0-7.9.3-7.9.6M41.6 186.1c-.3 1.7-.6 6.4-.6 10.5 0 23.6 12.4 43 39 60.9l8.5 5.7 14 6.8c15.8 7.7 40 17 46 17.7l4.1.5 8.6-3c24.1-8.5 45.1-18.5 59.8-28.3l9.5-6.3 7.6-7.6 7.6-7.5 3.7-5.8c2.1-3.2 4.9-8.8 6.3-12.5l2.6-6.7.5-10.2c.2-5.6.2-11.7-.2-13.7l-.7-3.6h-5.4l.3 11 .4 11.1-2.1 6.7-2 6.7-3.8 6.4-3.8 6.5-7.1 7.1-7.1 7.2-9.4 6.3-9.4 6.3-14 6.7c-7.7 3.8-20.2 9.1-27.8 11.9L153 282h-5.9l-12.9-4.9c-36.2-13.6-55-24.6-70.5-41.1l-7.4-7.8-3.6-7.4-3.6-7.3-1.2-5.4-1.1-5.5.4-9.8.5-9.8h-5.4zm12.9-2.2c-.3.6-.8 4.5-1.2 8.8l-.6 7.8 1.7 6.4c.9 3.5 3.1 9.1 4.9 12.5l3.2 6.1 6.8 7.2 6.8 7.2 9 6.1 8.9 6.1 14.2 6.9c7.9 3.8 20.5 9.2 28 12l13.7 5 12.3-4.4c32.5-11.8 54.6-24.3 68.6-38.7 6.7-7 9.8-11.6 12.8-19l2.4-5.9.6-5.9.7-5.9-.7-6.6-.8-6.6H55.1zm31.3 15.7 2.2 1.5v3.7l-2.5 3.1-2.6 3 2.3.3 2.3.3.3 1.7.3 1.8H76v-3.8l4-3.2 4-3.2V202h-4v2h-4v-1.4c0-1.7 3.8-4.6 6-4.6.9 0 2.6.7 3.8 1.6m14.9.6 1.3 1-.2 3.2c-.1 1.7.2 3.9.6 4.8l.8 1.6-2.1 2.1L99 215h-6l-2.1-2.1-2.1-2.1.8-1.6c.4-.9.7-3.1.6-4.9l-.2-3.2 2.3-1.6 2.2-1.6 2.5.6c1.4.4 3 1.1 3.7 1.7m14 0 1.3 1v4.9l-3 4.5-3.1 4.4h-4.1l1.6-2.5 1.6-2.4-2.3-1.2c-4.4-2.4-4.8-4.9-1.1-8.5l2.5-2.6 2.7.7c1.5.4 3.3 1.1 3.9 1.7m21.9-.1 1.1.9.1 6 .1 6-1.9 1c-1 .5-3.1 1-4.6 1h-2.7l-1.9-1.7c-1.9-1.7-2.4-4.8-.8-5.8l.9-.6-.5-2.8-.6-2.8 2.4-1.7 2.3-1.7 2.5.6c1.4.4 3 1.1 3.6 1.6m14.1.1 1.3 1v5l-3.2 4.4-3.1 4.4h-1.9c-2.2 0-2.3-.8-.2-3.1l1.7-1.8-2.6-1-2.6-1-.7-2.7-.7-2.7 2.8-2.4 2.8-2.4 2.6.6c1.4.4 3.2 1.1 3.8 1.7m14.1.5 1.2 1.7v8.9l-1.7 1.9-1.6 1.8H157l-2-2-2-2v-8.1l2.6-2.5 2.5-2.6 2.7.7c1.5.3 3.3 1.3 4 2.2m22 0c1.9 2.6 1.5 4.2-1.8 7.3l-3.1 2.9 2.8.3 2.8.3.3 1.7.3 1.8h-12l-.7-1.1-.7-1.2 4.7-4.4 4.7-4.3-.6-1c-.8-1.3-3.5-1.3-3.5 0v1h-4v-1.4c0-.8 1-2.2 2.3-3.1l2.2-1.6 2.5.6c1.4.3 3.1 1.3 3.8 2.2m12-1.1 2.2 1.5v4.6l-2.6 2.4-2.6 2.4 2.9.5 2.8.5v3l-6.2.3-6.3.3v-1.3c0-.8 1.8-3.2 4-5.3s4-4.5 4-5.2V202h-1.4c-.8 0-1.8.4-2.1 1-.7 1.2-4.5 1.4-4.5.2s1.4-2.8 3.5-4c2.7-1.5 3.7-1.5 6.3.4m14 0 2.2 1.5v3.7l-2.6 3.1-2.6 3.1h5.2v4h-12v-3.8l4-3.2 4-3.2V202h-4v2h-4v-1.4c0-1.7 3.8-4.6 6-4.6.9 0 2.6.7 3.8 1.6m12.5-.7c1.3.5 2.7 1.7 3.1 2.6l.6 1.6-1.2 2.2c-.6 1.2-2.1 2.9-3.2 3.7l-2.1 1.5 3 .5 3 .5.3 1.8.3 1.7h-12l-.7-1.2-.7-1.2 4.1-3.7 4.2-3.7V202h-1.4c-.8 0-1.8.4-2.1 1-.3.5-1.3 1-2.1 1H217v-1.4c0-1.4 3.6-4.6 5.2-4.6.3 0 1.8.4 3.1.9m-102.5 8.5-.3 2.1h-4l-.3-1.9-.4-1.9 1.3-.7c.7-.5 1.8-.6 2.6-.3l1.4.6zm51 .4-.3 1.7-2.3.3-2.2.3-.6-1.5-.6-1.6 1.2-1.5 1.2-1.5 2 1.1 1.9 1zm-79.1-6.2c-.4.4-.7 1.3-.7 2.1v1.3h4.1l-.3-1.7c-.3-1.8-2-2.7-3.1-1.7m-1.2 7.4-.7 1.2 1 1 1 1 1.8-.4 1.9-.3v-3l-2.2-.3-2.1-.3zm13.9-5.9-.6 1.1 1.5 1.5 1.5 1.5 1.1-.6c.6-.4 1.1-1.6 1.1-2.7V202h-1.9c-1.1 0-2.3.5-2.7 1.1m22.6-.6-1.2 1.5 1.7.6 1.6.7 1.1-1.1 1-1-.6-1.1c-1-1.5-2.1-1.4-3.6.4m-.5 6.5c-.9 1.5.4 3 2.6 3h1.9v-4h-1.9c-1.1 0-2.3.4-2.6 1m13.8-5.4-.6 1.6 1.4.9c2 1.3 3.4.6 3.7-1.9l.3-2.2h-4.2zm14.4-.9c-1 .9-.8 6.6.2 8.2l.9 1.4 1.6-.6 1.6-.6V202h-1.8c-1 0-2.2.3-2.5.7"/>
  <path fill="#596042" d="M81.6 39.2C80.6 41 61.8 73.6 60.4 76c-.1.3 1.3 3 3.2 6 4.4 7 7.3 14.7 8.8 23.5l1.2 7 35.7.3 35.7.2V46.2l-9.2-.6c-14.6-1.1-30.4-3.4-41.6-6.1-5.7-1.4-10.5-2.5-10.7-2.5-.3 0-1.1 1-1.9 2.2m27.2 27.9.8 4.4 1.3-3.5 1.4-3.5.7 3.7c.3 2 1.4 4.7 2.3 6.1.9 1.3 2 4 2.5 5.8l1 3.4.1-2c.1-1.1-1-4.1-2.4-6.7s-2.5-5.2-2.5-5.9v-1.1l1.3 1.1c.8.6 1.7.8 2 .5.3-.4 1.4-.4 2.3 0l1.7.7-1.1 1.1-1 1 .5 1.4c.3.8 1.1 1.4 1.8 1.4.8 0 1.7.5 2.1 1.2l.7 1.1-1.9 1.4-1.9 1.3 1.3 2c.6 1.1 1.2 2.4 1.2 3v1h-4.2l.4 2.5.5 2.5-1.3 1-1.2 1.1-.7-1.1c-1.1-1.7-2.5-1.1-3.5 1.5-1.1 2.8-2.5 3.2-3.3 1.1l-.6-1.4 1.9-1.7c1.1-1 2.2-2.6 2.5-3.6l.6-1.8-1.2-2.3c-.7-1.3-2.3-3.6-3.5-5.1l-2.4-2.9v-5.3c0-3-.5-6.6-1.1-8.2l-1-2.8 1.6 1.6 1.5 1.5zm-4 1.1c-.3 2.9-.9 6.2-1.3 7.3l-.8 2 1.6-2 1.6-2 .1 1.6c0 .9 1.4 3.3 3 5.4l3 3.8v5l-1.7 1.9c-.9 1-2.2 1.8-2.8 1.8-.7 0-1.5.7-1.9 1.5l-.5 1.5-1.6-.6-1.5-.6v-1.7c0-1-.3-2.1-.7-2.4l-.6-.7-1.4 1.1-1.3 1.1-1.5-1.2-1.6-1.3 1.1-1.1c.5-.5 1-1.6 1-2.3V85h-3.8l-.5-1.4-.5-1.3 2-1.7 2-1.7-1.7-1.3-1.8-1.3.5-1.4.5-1.4h3.8l-.3-2.7-.3-2.6 1.1-.7 1.1-.7 2.1 1.9c1.2 1 1.8 1.3 1.5.6l-.7-1.2 1-.6c.5-.3 1-1.5 1-2.6 0-1 .3-1.9.6-1.9.4 0 .4 2.4.2 5.2m-5.3 5.9c-.9 1.7-1.5 3.3-1.3 3.5.3.2 1.2-1.2 2.1-3.1 2.1-4.3 1.3-4.7-.8-.4m112-36c-9.6 3-29.4 6.1-47.7 7.5l-8.8.6V113h71.5l1.2-7.8 1.2-7.7 5.4-10.7 5.4-10.8-11.1-19.5-11.1-19.4H216c-.8 0-2.8.5-4.5 1m-11.6 28.1L202 65v1.8c0 2.3 1.9 4.2 4.3 4.2h1.9l-1.2 1.5-1.2 1.4.7 2.1.6 2h-.8c-.5 0-1.7-1.6-2.6-3.5l-1.6-3.4-3.2-1.6-3.1-1.7-3.5.7-3.5.6-2.4 2.6-2.4 2.6V78h-2v-1.9c0-1.1-.3-2.6-.6-3.4l-.6-1.5 2.4-.4 2.3-.3.3-2.7.3-2.7 2.6 1.2 2.6 1.2 1.5-2.3 1.4-2.2 1.8 2.3 1.9 2.2zm.7 6c1.2 1.1 2.4 3 2.7 4.4l.4 2.4H185v-1.6c0-.8.5-2.4 1.1-3.5l1.1-2.1 3.1-1.3 3.2-1.4 2.5.6c1.4.3 3.5 1.4 4.6 2.5M182.5 79l.6 1H205l1.9-1.2 1.8-1.1 1.9.7 1.9.8-2.3.9-2.3.9.6 1c.3.5 1.3 1 2.1 1s1.4.4 1.4 1v1h-6v-2h-8.3l1.8 2 1.8 2 2.6.1 2.6.1-1.7.5-1.7.4.6 1.6.6 1.6-1.6-.6-1.7-.6v1.3c0 .8-.7 1.7-1.6 2l-1.7.6-1.3-1.1-1.4-1.1-.1 2.3-.2 2.4-.4-2.3-.5-2.3-1.4 1.2-1.4 1.2-.7-.7-.6-.6 2.1-2.3c2.2-2.3 2.8-4.8 1.5-6l-.6-.7-1.9 1.7-1.8 1.6V93h-1c-.5 0-1-.7-1-1.6v-1.6l-1.5 1.2-1.5 1.2v-1c0-.6.6-1.4 1.2-1.8l1.3-.8-2.5-.7-2.5-.7 3.1-.1 3.1-.1 1.8-2 1.8-2h-8.2l-.6 1c-.3.5-1.7 1-3 1s-2.7-.5-3-1l-.6-1h4.1v-3h-4.1l.6-1c.3-.6 1.7-1 3-1s2.7.4 3 1m12.5 7.7v3l2 1.8 2 1.8v-6l-2-1.8-2-1.8zM39.6 117.2c-2.1 3.5-15.2 26-16.5 28.6l-1.2 2.2 9.3 16 9.3 16h219l9.4-16.1 9.3-16-6.5-11.2c-3.5-6.2-7.8-13.5-9.4-16.2l-2.9-5-109.2-.3-109.1-.2zm170.5 8.8c3.9 1.1 6.3 3.3 7.3 6.7l.7 2.3h-6.6l-1.3-2-1.2-2h-2.3c-1.2 0-2.8.4-3.6.9l-1.4.9-.5 5.4-.4 5.3 1.9 2.4 2 2.4 2.6-.7 2.6-.6.6-2 .6-2h2.9c3.5 0 4.3 1.1 3.1 4.4l-1 2.5-3.2 1.6-3.1 1.7-4.8-.4-4.8-.3.5.7.4.8h-5.8l-1.1-2.5-1.2-2.5h-9.7l-1.1 2.5-1.2 2.5-6.2-.3-6.3-.2-.5-7.5-.5-7.5-1.9 4.3-1.9 4.2h-4.4l-1.9-4.2-1.9-4.3-.5 7.5-.5 7.5-6.8.2-6.7.2-2.5-4.9-2.5-5h-3v3.7c0 2.1-.4 4.3-.8 4.9l-.7 1.2-13.2.1-13.3.1v-28h37.1l2.4 2.5 2.5 2.4v8.1l-2 2-2.1 2.1 2.3 4.1 2.3 4 .3-12.6.3-12.6h6.6l3.2 6c1.8 3.3 3.4 6 3.6 6s1.8-2.7 3.6-6l3.2-6h6.6l.3 12.2.3 12.3 1.4-4c.7-2.2 2.7-7.7 4.3-12.3l3-8.2h7.9l1.2 3 1.3 2.9 2.7-2.9 2.7-2.9 2.8-.4c1.5-.2 2.9-.5 3.2-.5.3-.1 2.1.3 4.1.8M88 131.1v4.9h9v-10h7v28.1l-3.2-.3-3.3-.3-.3-5.3-.3-5.2h-8.8l-.3 5.2-.3 5.3h-6l-.3-10.8-.3-10.9-1.5.6c-.9.3-2.6.6-3.9.6h-2.4l-.3 10.2-.3 10.3h-7l-.3-10.2-.3-10.2-3.2-.3-3.2-.3-.3-3.3-.3-3.2 15 .1H88zm149.2-4 2 1.1 1.4 3.3 1.4 3.4v9.2l-1.4 3.4-1.4 3.3-2 1.1-2.1 1.1h-4.5c-2.5 0-5.6-.5-6.9-1.1l-2.5-1.1-1.1-2.5-1.1-2.4v-14.1l2.9-2.9 2.9-2.9h10.3zM98.3 160c.3 1.1 1 2 1.5 2s1.2-.9 1.5-2 1-2 1.6-2h1.1v10h-1.1c-.6 0-1.3-.9-1.6-2l-.5-2H98v4h-2v-10h.9c.5 0 1.1.9 1.4 2m9.3.5c.7 3 2.4 3.3 2.4.6 0-2 1.7-3.7 2.7-2.8.8.9-2.2 9-3.5 9.5l-1.2.4-1.5-3.6c-.8-1.9-1.5-4.2-1.5-5.1 0-2.4 1.9-1.7 2.6 1m12.7.5 1.3 2.9 1.1-2.9 1.1-3h5l1.2 1.5 1.3 1.5-.7.7-.6.7-1.2-1.2c-.7-.7-1.8-1.2-2.5-1.2H125v2.3c0 3.2.8 3.8 3.1 2.4l1.8-1.1.7.7.7.7-1.3 1.5c-1.6 1.9-4.4 1.9-6.4-.1l-1.6-1.5v1.5c0 .9-.4 1.6-1 1.6-.5 0-1-.5-1-1v-1h-1.8c-1 0-2.3.5-3 1.2-2 2-2.3.3-.6-4.5l1.6-4.7h2.9zm20.5-1.2.4 1.3-2.6-.7c-3.5-.8-3.3.1.3 1.9l2.9 1.4.6-2.9.6-2.9 3.2.3 3.3.3.3 4.2.3 4.2-2.6.7-2.5.6-1.6-1.2-1.5-1.3-1.1 1.1c-.7.7-2.2 1.2-3.4 1.2h-2.2l-1.3-1.7-1.4-1.6 2.8.5 2.7.5.5-.7.5-.8-2.5-.6-2.5-.6v-1.9c0-2.5 1-3.2 3.9-2.9l2.4.3zM154 162v4h4v2.1l-3.2-.3-3.3-.3-.3-4.8-.3-4.7h3.1zm7.2-.3.3 3.8h2l.3-3.8.3-3.7H178v10.2l-1.2-.4-1.3-.5-.3-3.6-.3-3.7H172v8h-2v-8h-3v2.1c0 1.1-.5 2.9-1 4l-1.1 1.9H163c-1 0-2.6-.7-3.4-1.6l-1.6-1.5V158h2.9zm25.3.7v3.9l-1.7 1.1-1.8 1.1-1.7-1.1-1.8-1.1-.3-2.7c-.2-1.5-.1-3.4.2-4.2l.6-1.5 3.2.3 3.3.3zm4.8-2.4 1.4 2.1.6-2.1c.3-1.1 1-2 1.6-2h1.1v10h-.9c-.5 0-1.9-1.2-3-2.8l-2-2.7-.1 2.7v2.8h-2v-10h.9c.6 0 1.6.9 2.4 2m12.5-.2.4 1.3-2.8-.7-2.7-.7.7 1.2c.4.6 1.3 1.1 2 1.1.8 0 1.9.7 2.6 1.5l1.2 1.5-1.2 1.6-1.3 1.5-2.5-.3-2.5-.3-.5-1.4-.5-1.4 2.2.6 2.1.5.5-.8.5-.8-2.5-.6-2.5-.6v-1.9c0-2.5 1-3.2 3.9-2.9l2.4.3zm-85.5-28.1-6.3.4v4.9h12.1l-.3 2.7-.3 2.8-5.7.3-5.8.3v4.9h13v-8.5c0-4.7-.1-8.4-.2-8.3-.2.1-3.1.3-6.5.5M133 135v3.1l3.3-.3 3.2-.3v-5l-3.2-.3-3.3-.3zm61.2 4.7-.2 7.2 2.3 2.3c1.2 1.3 1.5 1.5.7.5l-1.5-1.9-.6-7.7-.6-7.6zm-7.5-1.4-1.6 4.7h5.9l-.1-1.3c0-.6-.6-2.8-1.3-4.7l-1.3-3.4zm40.3-5.8c-.7.8-1.5 3.5-1.8 6l-.5 4.5 1.7 2.5 1.6 2.5h4.9l1.1-1.9 1-2v-9.2l-1-2-1.1-1.9h-4.7zM117 163c0 .5.5 1 1.1 1h1l-.6-1c-.3-.6-.8-1-1.1-1-.2 0-.4.4-.4 1m28 0v3.2l1.3-.5 1.2-.4v-4.6l-1.2-.5-1.3-.4zm36.5-2c-.8 1.3.3 5 1.5 5s2.3-3.7 1.5-5c-.3-.5-1-1-1.5-1s-1.2.5-1.5 1M54.7 184.3c-.3.8-.8 4.2-1.2 7.8l-.7 6.4 1.6 7.3 1.5 7.2 3.3 6.3 3.2 6.2 8.1 8.1 8 8.1 8.8 5.7c11.1 7.3 31.3 17 49 23.5l13.8 5.1 13.7-5.1c7.5-2.7 20.1-8.1 28-11.9l14.2-6.9 9-6.2 9-6.1 7.3-7.7 7.2-7.7 3.3-6.7 3.2-6.7 1.2-6.7 1.1-6.8-.9-7-.9-7-95.1-.3-95.2-.2zm31.1 15.3 2.2 1.5v3.7l-2.6 3.1-2.6 3.1H88v4H76.1l-.6-1.1-.7-1.1 4.6-4.3c2.5-2.3 4.6-4.7 4.6-5.4V202h-4v2h-4v-1.4c0-1.7 3.8-4.6 6-4.6.9 0 2.6.7 3.8 1.6m14.1 0 2.3 1.6-.5 2.7-.5 2.6 1 1.8.9 1.8-1.6 2.5-1.5 2.4h-7.3l-1.9-1.7c-1.9-1.7-2.4-4.8-.8-5.8l.9-.6-.5-2.8-.6-2.8 2.3-1.7c3-2 4.8-2 7.8 0m14.8.6 1.3 1v5.4l-3.1 4.2-3.1 4.2h-1.9c-2.3 0-2.5-1.3-.3-3.1l1.5-1.3-2.5-1.3-2.6-1.4-.6-2.6-.7-2.6 2.8-2.4 2.8-2.4 2.6.6c1.4.4 3.2 1.1 3.8 1.7m20.9-.7 2.1 1.4.1 6.1.1 6-1.9 1c-1 .5-3.1 1-4.6 1h-2.7l-1.9-1.7c-1.8-1.6-2.4-4.4-1.1-5.7.4-.4.6-2.2.5-4l-.3-3.2 2.3-1.2c3.2-1.5 5-1.4 7.4.3m15.1.7 1.3 1v4.9l-3 4.5-3.1 4.4H144c-2.4 0-2.5-.8-.4-3.1l1.5-1.7-2-.7c-1.2-.3-2.6-1.5-3.2-2.7l-1.1-2 .6-2.2.6-2.3 2.2-1.1 2.3-1.1 2.5.5c1.4.3 3.1 1 3.7 1.6m14.1.5 1.2 1.7v8.9l-1.7 1.9-1.6 1.8h-6.6l-1.5-2.2-1.6-2.2v-7.7l2.6-2.5 2.5-2.6 2.7.7c1.5.3 3.3 1.3 4 2.2m21.2-.7c2.6 2.6 2.5 4.2-.5 7.9l-2.6 3 2.3.3 2.3.3.3 1.7.3 1.8H175v-1.4c0-.7 1.8-3 4-5l4-3.6v-3h-1.5c-.8 0-1.5.4-1.5 1v1h-4v-1.4c0-1.8 3.8-4.6 6.2-4.6 1 0 2.7.9 3.8 2m14.2.3c.4.7.8 2.1.8 3.3v2.1l-2.6 2.4-2.6 2.4 2.9.5 2.8.5.3 1.8.3 1.7H189v-1.3c0-.7 1.8-3.1 4-5.2s4-4.5 4-5.2V202h-1.4c-.8 0-1.8.4-2.1 1-.7 1.2-4.5 1.4-4.5.2 0-1.3 2.3-3.9 4-4.5 2-.8 6.3.2 7.2 1.6m12.6-.7 2.2 1.5v4.3l-2.7 2.8-2.7 2.8h5.4v4h-12v-3.8l4-3.2 4-3.2V202h-4v2h-4v-1.4c0-1.7 3.8-4.6 6-4.6.9 0 2.6.7 3.8 1.6m14.2.4c2.6 2.6 2.5 4.2-.5 7.9l-2.6 3 2.3.3 2.3.3.3 1.7.3 1.8H216v-1.3c0-.7 1.8-3.1 4-5.2s4-4.5 4-5.2V202h-1.4c-.8 0-1.6.5-1.8 1.1l-.4 1.1-2.4-.4-2.5-.3 2.7-2.8 2.7-2.7h4.1zm-103.6 6.5.5 1.4-1.4 1.1-1.5 1.2-1.5-.6-1.5-.5v-3.9l1.3-.5c1.7-.6 3.4.2 4.1 1.8m49.6-1 1.2 1.5-.6 1.5-.5 1.5h-4.2l-.5-1.5-.6-1.5 1.2-1.5c.7-.8 1.6-1.5 2-1.5s1.3.7 2 1.5m-78.3-3.9c-.4.4-.7 1.3-.7 2.1v1.3h4.1l-.3-1.7c-.3-1.8-2-2.7-3.1-1.7m-1.2 7.4-.7 1.2 1 1 1 1 1.8-.4 1.9-.3v-3l-2.2-.3-2.1-.3zm14-6c-.9 1.5.4 3 2.6 3h1.9v-4h-1.9c-1.1 0-2.3.4-2.6 1m23.2-1.4c-.4.4-.7 1.4-.7 2.1v1.4l1.8-.3 1.7-.3v-1.4c0-1.6-1.8-2.5-2.8-1.5m-1.2 7.4c-.9 1.5.4 3 2.6 3h1.9v-4h-1.9c-1.1 0-2.3.4-2.6 1m14-6.1c-.9 1.6.3 3.1 2.6 3.1h2l-.3-1.7-.3-1.8-1.7-.3-1.6-.3zm14.1.6c-.3.9-.6 2.7-.6 4v2.3l1.5 1.2 1.6 1.3 1-1 1-1-.3-3.9-.3-3.9-1.6-.3-1.6-.3z"/>
  <path fill="#45473c" d="M72 56.5 60.7 76.2l4.6 8.6c4.4 8.4 6.8 15.4 8.2 23.4l.6 3.8H145V46h-5.3c-11.7 0-47.1-5.5-55.2-8.6l-1.3-.5zm34.3 3.2c.8 1 1.9 3.4 2.4 5.3l.9 3.5 1.3-2.3c1.5-2.9 2.9-2.8 4.1.3l.9 2.5 2.3-.3 2.3-.2v6l1.8.3 1.7.3v3.7l-1.2.5-1.3.4 1.4 2.5 1.3 2.6-.7 1.1-.7 1.2-1.6-.3-1.7-.3.3 2.7.3 2.6-1.2.7-1.1.7-1-1-1-1-1.4.5-1.4.5V96h-4v-1.5c0-2-1.7-1.9-2.8.2l-1 1.6-1.6-.6-1.6-.6v-4.3l-2.2.5-2.2.6-1.3-1.1-1.3-1.1 1.1-1.3 1.1-1.3-.7-1.1c-.3-.5-1.3-1-2.1-1s-1.4-.2-1.4-.4-.3-1.1-.6-2l-.6-1.6H95v-1.4c0-.8-.4-1.8-1-2.1-.5-.3-1-1.5-1-2.7v-2l1.9.5 2 .5.5-1.4.5-1.3-1-.7-1-.6 1.2-1.4 1.1-1.4 2.3.6 2.3.6 1.1-2.9 1.1-2.8-.3 5.8-.2 5.7h1.5V62.4l-1.6-2.2-1.5-2.2h.9c.5 0 1.6.8 2.5 1.7m1.6 19.1c.5 1 1.8 2.5 2.7 3.3l1.8 1.4-2.4-3.3c-2.6-3.5-3.6-4.2-2.1-1.4m100.6-39.7c-11 2.9-29.1 5.7-41.8 6.5l-11.7.7V112l35.7-.2 35.8-.3.7-4.8c1.1-7.7 3.8-15.2 8.3-23.1l4.1-7.3-11.2-19.4c-6.1-10.6-11.5-19.4-12-19.5s-4 .6-7.9 1.7m-10.4 27.3c.8-.1 2.2-.5 3.2-.9l1.7-.7-.5 1.5-.6 1.4 1.7 1.7 1.7 1.7 1.3-.5 1.3-.5-.6 3.5-.6 3.4h4.1l1.2 1.5 1.2 1.5H209v3h4.2l-1.2 1.5c-1.4 1.7-4.6 2-5.5.5l-.6-1h-7l.6 1 .6 1h5.8l.6 1 .6 1h-4.5l1.2 1.2c.7.7 1.2 1.6 1.2 2.1v.9l-1.5-.6-1.6-.6-.5 1.5-.6 1.5-.8-.5c-.5-.3-1.2-.1-1.5.5l-.7 1.1-1.4-1.2-1.4-1.1v1.6c0 .9-.4 1.6-1 1.6-.5 0-1-.7-1-1.6v-1.6l-1.4 1.1-1.5 1.2-1.8-1.8-1.8-1.8-1.8.3-1.7.3v-.8c0-.5.5-1.4 1.2-2.1l1.2-1.2H182v-2h5.9l.7-1.1.7-1.2-3.9.7c-2.2.4-5 .8-6.3.9l-2.4.2-.4-1.3-.5-1.2h3.2v-3h-1.5c-2.6 0-1.6-1.8 1.5-2.9l3-1v-1.5c0-.8-.4-1.8-1-2.1-.5-.3-1-1-1-1.5v-.9l1.5.5 1.5.6 1.5-1.2 1.5-1.2v-5.1l2.1 1.9 2.2 1.9 2-2.7 2-2.7 1.2 2.2 1.1 2.2zm-4.3 2.3c.7.3 1.6.2 1.9-.1.4-.3-.2-.6-1.3-.5l-1.9.1zm4.9 1.8c1.2.9 2.9 2.6 3.8 3.8l1.5 2.1v-1c0-1.5-4.9-6.4-6.4-6.4h-1zm-12.1 1.4c-.9 1-2.1 3.2-2.6 5l-.9 3.1H205l-.1-1.8-.1-1.7-.5 1.2-.5 1.3H185v-1.9c0-1 .9-3 2.1-4.5 2.3-3 2-3.5-.5-.7m4.2 14.8c-1.9 2.1-2.4 5.3-.9 5.3.5 0 1.4-.7 2.1-1.4l1.2-1.5-.4-2.2-.3-2.1zm4.2.1v1.9l2 1.8 2 1.8v-2.4c0-2.5-1.6-4.9-3.2-4.9-.4 0-.8.8-.8 1.8M42.6 123.2c-.7 1.3-4.3 7.3-7.9 13.4l-6.5 11.2 8 13.6 8 13.6h211.4l7.7-13.3c4.2-7.4 7.7-13.7 7.7-14s-3.4-6.5-7.6-13.6l-7.6-13.1H44zm171.1 3.7 3.1 2 .7 2.1.7 2.2 1.8-2.9 1.8-3 3.1-1.3 3.1-1.3 4.3.6 4.2.6 2.8 3.1 2.7 3v15l-2.8 3.1-2.8 3.2-5 .4-4.9.4-3.3-2.1-3.3-2-.7-2.1-.8-2-1.3 2.5-1.4 2.5-3.1 1.5-3.1 1.4h-14.6l-.9-2.4-1-2.4h-9.8l-.6 2.5-.6 2.5h-14v-7.3l-.1-7.2-2 3.7-1.9 3.8h-5l-1.9-3.8-2-3.7-.1 7.3v7.3l-7.2-.3-7.3-.3-2.5-4.7-2.5-4.8h-2.4l-.3 4.7-.3 4.8-13.7.3-13.8.3V126h36.6l2.2 1.6c1.3.9 2.7 2.6 3.2 3.8l.9 2.1v-3.8l.1-3.7h6.8l3.4 6 3.3 6 3.3-6 3.3-6h6.9l.1 12.2v12.3l4.3-12 4.3-12 4.6-.3 4.6-.3.7 2.6.7 2.6 2.6-2.4c3.2-3 4.5-3.5 9.6-3.6l4-.1zM88 131v5h9v-10h7v28h-7v-11h-9v11h-7v-21.6l-4 .4-4 .4v20.9l-3.7-.3-3.8-.3-.3-10.3-.3-10.2H58l-.6-2.4-.6-2.5.7-1 .6-1.1H88zm11 28.5c0 .8.5 1.5 1 1.5.6 0 1-.7 1-1.5V158h6.2l.5 2c.3 1.1.9 2 1.4 2s.9-.9.9-2v-2h3.8l-1.6 5-1.6 5h-3.2l-1.6-4.8-1.6-4.7-.1 4.7-.1 4.8h-3v-4h-2v4.1l-1.7-.3-1.8-.3-.3-4.8-.3-4.7H99zm21.5 1.2.7 2.8 1-2.8 1-2.8 3.6.3 3.7.3.3 1.7.3 1.8h-1.4c-.9 0-1.7-.5-1.9-1.2l-.4-1.2-1.2.8c-.7.4-1.2 1.6-1.2 2.7v2.1l3-.7 3-.7v1c0 .5-.6 1.5-1.4 2.1l-1.4 1.1-3.3-.1c-1.9-.1-4.5-.6-5.8-1.3l-2.4-1.1-.4 1.2c-.5 1.5-3.3 1.7-3.3.3 0-.5.7-2.8 1.6-5l1.6-4h3.6zm20.1-1.6.6 1.1 1.1-1.1c1.5-1.5 6-1.4 7.5.1l1.2 1.2V158h3v7h4v-7h3v7h3v-7h14l.1 2.2v2.3l.9-2.3.9-2.2h6.2l.9 2.2.9 2.3v-2.3l.1-2.2h1.1c.7 0 1.8.8 2.5 1.7l1.3 1.8.1-1.8V158h3v3c0 1.6.4 3 .8 3s.8-1.2.7-2.8v-2.7l3.1-.3 3.1-.3.7 1.7.6 1.6-2.5-.4c-3.2-.7-3.2 0 0 1.2l2.5 1v4l-2.7.6-2.6.7-1.9-1.2-1.8-1.1v1c0 1.6-2.2 1.2-3.6-.8l-1.3-1.7-.1 1.7v1.8h-3l-.1-2.3v-2.2l-.9 2.2-.9 2.3h-6.2l-.9-2.3-.9-2.2v2.2l-.1 2.3h-3v-8h-3v8h-2v-8h-3v5.6l-1.2 1.2c-.7.7-2.1 1.2-3.3 1.2s-2.6-.5-3.3-1.2l-1.2-1.2v2.4h-7v-1.8l-.1-1.7-1 1.7-1 1.8h-2c-1.1 0-2.9-.5-3.9-1l-1.9-1-.6 1c-.3.5-1.7 1-2.9 1h-2.4l-1.3-1.7-1.4-1.6 1.3-.5 1.3-.4-1.1-1.3-1-1.2.6-1.7.6-1.6h5.7zm63-26.8-1.7 1.3.3 6.3.3 6.4 2.3.8 2.3.9 2.3-2.5 2.3-2.5h6.3v-7h-6.8l-1.6-2.5c-1.8-2.8-3.4-3.1-6-1.2m24 .3-1.6 1.5v10.8l1.6 1.5c1.9 1.9 2.5 2 4.8.3l1.9-1.4-.2-5.9-.1-5.9-1.7-1.3c-2.2-1.6-2.8-1.5-4.7.4M112 134v1.9l5.8.3 5.7.3.3 3.2.3 3.3H112v4h13v-15h-13zm21 1v3h4.8l1.1-1.4 1.1-1.3-.6-1.7-.6-1.6H133zm53.8 3.9-1.6 4.1h2.9c3.2 0 3.3-.1 1.5-4.9l-1.2-3.4zm-39.8-.7c0 .6-.8 2-1.7 3l-1.7 1.9 2.2 4.2 2.1 4.2v-7.3c.1-3.9-.1-7.2-.4-7.2s-.5.5-.5 1.2m-9.5 22.8c.3.4 1.4 1 2.5 1.3l2 .5v-.8c0-.4-1.1-1-2.5-1.2l-2.4-.5zm7.5 1.5v2.5h2v-5h-2zm37 0v2.5h2v-5h-2zM54.4 186.2c-.4 1.8-.7 6.7-.7 10.8l.1 7.5 2.1 6.4c5.8 16.9 20.5 31.2 46.1 44.8 10.5 5.6 41 18.1 46.3 19l3.3.5 14-5.2c16.8-6.2 37-16 47.9-23.2l8-5.3 8.2-8.2 8.2-8.2 3.4-7.3 3.5-7.3 1.2-5.9 1.2-5.9-.7-6.5c-.4-3.6-.9-7.1-1.2-7.9l-.5-1.3H55.2zm32 13.4 1.6 1.5v4.6l-2.6 2.4-2.6 2.4 2.9.5 2.8.5v3l-6.7.3-6.8.3v-1.4c0-.7 1.8-3.1 4-5.2 3.8-3.7 5.1-6.5 3.1-6.5-.5 0-1.4.7-2.1 1.5s-1.9 1.5-2.6 1.5H76v-1.7c0-.9.7-2.5 1.7-3.5l1.6-1.8h5.6zm13.7-.5 2 1-.2 3.4c-.2 1.9 0 3.7.4 4.1 1.2 1.2.8 4.2-.9 5.8l-1.5 1.6h-7.8l-1.5-1.6-1.6-1.5.6-5.7.6-5.7 1.6-1.3c1.9-1.5 5.7-1.6 8.3-.1m14.4.3 1.8 1.3v5.8l-2.9 4.2-2.9 4.2-2.2.1c-2.6 0-2.9-1-1-2.9l1.2-1.2-2.7-2.1-2.8-2V202l2-2 2-2h5.6zm22 .3 1.7 1.6-.4 2.9-.5 2.9.9.5c1.3.8.9 3.6-.9 5.6l-1.6 1.8h-8.5l-1.1-1.4-1.1-1.3.4-5.9.4-5.8 1.8-1.3c1-.7 3-1.3 4.5-1.3h2.8zm13.9.6 2.3 2.3 2.1-2.3 2-2.3h5l2.3 1.9 2.4 1.9v9.9l-1.4 1.6-1.3 1.7h-7.1l-1.9-1.7-1.8-1.6v-6.9l-3.2 4.8-3.3 4.9-2.2.3c-2.6.4-2.8-.1-1.3-2.8l1-1.8-2.5-1.6-2.5-1.6v-5.9l2.2-1.5c1.2-.9 3.3-1.6 4.6-1.6h2.3zm35.8-.6 1.8 1.6v4.1l-2.7 2.8-2.7 2.8h5.4v4h-13v-3.3l4-3.4 4-3.5V202h-1.1c-.7 0-1.7.7-2.4 1.7l-1.2 1.6-1.7-.6c-2.1-.8-2-2.3.4-4.7l2-2h5.3zm13.8.3c2.6 2.6 2.5 4.2-.5 7.8l-2.5 3 3 .4 2.9.4 4.2-4.2 4.1-4.2-1.2-.7-1.1-.7-1.8 1.6c-1 .9-2.3 1.6-2.9 1.6H203v-1.7c0-.9.7-2.5 1.7-3.5l1.6-1.8h5.6l1.5 1.6 1.6 1.5v4.9l-2.6 2.3-2.6 2.2 2.9.5 2.8.6 4.3-3.4 4.2-3.4v-1.4c0-1.9-2-1.8-3.5.3l-1.2 1.6-1.7-.6c-2.1-.8-2-2.3.4-4.7l2-2h2.3c1.2 0 3.3.7 4.5 1.6l2.2 1.5v4.3l-2.7 2.8-2.7 2.8h5.4v4h-40v-3.9l4-3.2c2.2-1.8 4-3.8 4-4.6V202h-1.4c-.8 0-1.6.7-2 1.5l-.5 1.5H189v-3.9l2.2-1.5c1.2-.9 3.3-1.6 4.5-1.6h2.3zm-77 5.5 1.2 1.5-.6 1.5-.5 1.5H118v-2.3c0-3.9 2.6-5 5-2.2m50.5 1.5v2.5l-2.3.3-2.2.3-.6-1.5c-.3-.9-.3-2.3 0-3.2l.6-1.5 2.2.3 2.3.3zm-79.2-3.8c.2.7 1 1.3 1.7 1.3s1.5-.6 1.8-1.3l.4-1.2h-4.4zM94 210v2.1l1.8-.3 1.7-.3v-3l-1.7-.3-1.8-.3zm14-6.1v2.1h4.1l-.3-1.7-.3-1.8-1.8-.3-1.7-.3zm22.3-.7c.2.7 1 1.3 1.7 1.3s1.5-.6 1.8-1.3l.4-1.2h-4.4zm-.8 5.8-.7 1.2 1 1 1.1 1.1 1.6-.7 1.7-.6-.4-1.3c-.3-.6-1.2-1.3-2-1.5l-1.6-.3zm14-6-.7 1.2 1 1 1.1 1.1 1.6-.7 1.7-.6-.4-1.3c-.3-.6-1.2-1.3-2-1.5l-1.6-.3zm14.1 1.5-.7 2.7.6 1.9.7 2 1.6-.3 1.7-.3v-8l-1.6-.3-1.7-.3z"/>
</svg>