<?xml version="1.0" standalone="no"?>
<!DOCTYPE svg PUBLIC "-//W3C//DTD SVG 20010904//EN"
 "http://www.w3.org/TR/2001/REC-SVG-20010904/DTD/svg10.dtd">
<svg version="1.0" xmlns="http://www.w3.org/2000/svg"
 width="200.000000pt" height="200.000000pt" viewBox="0 0 200.000000 200.000000"
 preserveAspectRatio="xMidYMid meet">
<metadata>
Created by potrace 1.14, written by Peter Selinger 2001-2017
</metadata>
<g transform="translate(0.000000,200.000000) scale(0.100000,-0.100000)"
fill="#000000" stroke="none">
<path d="M890 1921 c-16 -13 -20 -32 -22 -101 l-3 -85 -45 -11 c-60 -14 -73
-19 -155 -59 l-69 -34 -63 60 c-79 76 -91 75 -191 -24 -87 -86 -91 -108 -35
-166 81 -82 78 -72 45 -127 -27 -47 -60 -126 -79 -189 l-9 -29 -82 1 c-107 1
-114 -6 -117 -124 -3 -108 2 -141 25 -153 10 -5 52 -11 94 -12 l75 -2 21 -70
c12 -39 37 -100 56 -135 l34 -65 -60 -62 c-36 -37 -60 -71 -60 -84 0 -14 28
-51 78 -101 98 -100 111 -101 190 -23 48 49 58 55 75 45 54 -34 123 -65 202
-91 l49 -15 -1 -82 c-1 -111 4 -115 142 -118 127 -2 144 8 146 83 2 124 -5
112 82 137 42 12 79 24 82 27 3 2 -31 41 -75 85 l-81 80 -42 -8 c-78 -15 -206
-4 -280 24 -158 61 -263 167 -324 325 -32 83 -40 227 -17 311 48 179 170 314
344 380 54 21 83 25 175 25 65 0 126 -5 150 -13 234 -77 381 -264 391 -496 1
-49 -2 -112 -8 -139 l-10 -48 78 -79 c43 -43 80 -76 82 -74 3 2 17 39 32 82
l28 78 80 -2 c112 -2 116 4 116 149 0 126 -6 137 -78 139 -127 3 -117 -1 -132
59 -8 30 -32 91 -53 135 l-40 80 61 63 c75 78 74 90 -25 190 -84 85 -108 91
-161 40 -18 -18 -44 -43 -58 -56 l-24 -22 -60 32 c-32 18 -92 44 -133 59 l-75
26 0 81 c-1 111 -5 114 -141 117 -86 2 -109 0 -125 -14z"/>
<path d="M955 1364 c-5 -1 -22 -5 -37 -8 -16 -4 -28 -12 -28 -18 0 -6 41 -53
90 -104 50 -50 90 -98 91 -105 0 -8 2 -22 4 -33 6 -30 -13 -68 -58 -114 -69
-71 -118 -88 -175 -58 -15 8 -61 49 -102 90 -41 42 -80 76 -87 76 -8 0 -13
-13 -14 -32 -1 -18 -2 -46 -3 -63 -5 -80 41 -190 106 -256 69 -71 142 -101
263 -109 61 -4 112 -13 130 -22 17 -9 109 -95 205 -192 192 -193 204 -200 254
-147 l28 29 -196 196 c-119 119 -196 204 -196 216 0 23 37 50 59 43 9 -3 103
-93 208 -198 l193 -193 30 34 c16 19 30 42 30 51 0 9 -79 96 -175 192 -115
116 -180 189 -191 216 -11 26 -16 66 -15 120 2 185 -91 319 -259 374 -34 10
-134 21 -155 15z"/>
</g>
</svg>
